<svg xmlns="http://www.w3.org/2000/svg" width="226.744" height="239.31" viewBox="0 0 226.744 239.31">
  <g id="Page-1" transform="translate(-0.727 -0.254)">
    <g id="map" transform="translate(-589 -296)">
      <g id="normal" transform="translate(77 144)">
        <g id="map-2" data-name="map">
          <path id="Africa" d="M602.309,268.115c0,.93-.775,1.549-1.24,2.324-1.085.929.93.619.465,1.548h.31a.891.891,0,0,0-.62.93c-1.24.154-.155.619.465,1.084,1.24.619.155.774-.775.619-.31,1.084-.465,2.478-1.705,3.1-1.085.309.465.929.465,1.7.465.155,1.86.929.775,1.394-.31.465.775,1.394.93,2.013s2.169.31,1.24,1.239c.155.62,1.239,1.084,1.7,1.7a9.819,9.819,0,0,0,1.705,2.013c.31.465.465.465.62.31a.541.541,0,0,0-.155.31c.93.929,2.17,1.7,2.48,3.1.155.31.31.465.465.31l-.155.155a5.41,5.41,0,0,1,.775,1.239c0,.619-.155,1.084.155,1.084q-.465.465,0,1.394c.155.155.155.309.31.309h-.31c.62,1.085,1.705,2.014,1.86,3.408,0,1.7,2.015,2.787,1.86,4.646.155,1.084-1.24,1.239-1.24,2.168a7.388,7.388,0,0,0,1.859,3.407c1.085,2.478.93,5.73-.929,7.744a1.689,1.689,0,0,0-1.55,1.7,6.4,6.4,0,0,0-1.705,3.562c-.465,1.859-.155,4.182-1.86,5.421.155,1.549,0,3.252,0,4.8a6.841,6.841,0,0,0,.93,3.872c2.325,2.633,3.72,5.885,5.27,8.982.619,1.7,2.169,2.788,2.789,4.492-.155.464.155.619.31.774h-.155c0,.619-.775.774-.465,1.549-.155.464.155.619.465.619h-.31c.465,1.549.465,3.1,1.24,4.646.62.93,0,2.169.155,3.1,0,.929.775,1.394.93,2.168-.465.929.31,1.858.62,2.788a6.787,6.787,0,0,0,2.635,3.562,1.171,1.171,0,0,0,1.085.619c-.31.155-.465.31.155.775,1.859,2.323,2.324,5.42,4.029,7.743.93,1.394,2.015,3.1,1.86,4.956a.986.986,0,0,1-1.24,1.239c-.31.62.93,1.084,1.085,1.859.465.619.93,1.393.31,2.168-.31,1.084.62.619.93.155.62.464.775.774,1.705.774.465.62.465,1.394,1.55,1.549.775.774,1.4,0,1.86-.62,1.394-1.084,3.1-.155,4.8-.619a5.215,5.215,0,0,1,2.635-1.239,3.988,3.988,0,0,1,2.325.155c.62,0,1.24-.775,2.17-.465,1.084,0,1.859.774,2.789.929.62-.309,1.085-1.239,1.86-.929s1.55.465,1.55-.619c1.085-.155,2.17,0,3.255-.155,2.169-.775,4.029-2.478,5.889-3.872a20.187,20.187,0,0,0,3.41-2.943c2.635-2.168,4.494-4.956,6.509-7.743.775-1.394,2.635-1.549,3.255-3.1.31-.619-.775-1.858.62-1.858a6.267,6.267,0,0,0,1.085-3.253c0-.619.62-1.858-.31-2.323-.93-.309-1.085-1.084-.31-1.7,1.085-1.394,2.79-1.859,4.339-2.478a7.672,7.672,0,0,0,4.96-3.252c0-.775-1.085-.93-.31-1.859a14.317,14.317,0,0,0,.31-4.491c-.775.774-1.085-.31-1.085-.929-.155-.775-.775-1.549-.465-2.324.62-.929-.465-1.548-1.085-2.013a11.714,11.714,0,0,1,.155-2.323,37.569,37.569,0,0,0,3.1-2.168c2.015-1.239,3.255-3.562,5.114-4.8,1.86-1.084,4.185-1.549,6.045-2.633,1.86-.774,3.1-2.478,4.495-4.027a1.775,1.775,0,0,0,.619-1.858c.465-.465,1.24-1.239.93-1.859-1.084,0-.62-1.239-.774-1.858a4.5,4.5,0,0,0-.775-3.407c1.084-.93.155-2.323.31-3.562.155-.775-.62-1.549-.31-2.169.619-.774,1.084-1.858.31-2.632-.155.155-.31.309-.465.309.155,0,.155-.154.31-.154.464-.465-.93-.93-1.24-1.394-1.4-.62-1.55-2.478-1.86-3.717a7.664,7.664,0,0,1,0-3.253c-.93-.309-.465-1.084-.155-1.858a1.052,1.052,0,0,0-.31-1.858,4.492,4.492,0,0,1-1.4-2.324,9.965,9.965,0,0,1,1.085-4.336c-.155,0-.155-.155-.31-.155.31.155.465.155.775-.155.62-.464,1.24-1.239.93-2.013a35.208,35.208,0,0,1,2.015-3.1,1.47,1.47,0,0,1,1.085-1.858c1.084.155,1.239-1.084,1.239-1.858a1.447,1.447,0,0,0,2.015-.31,1.746,1.746,0,0,0,.155-1.239,41.045,41.045,0,0,1,3.255-4.027c2.48-2.478,4.8-5.42,8.214-6.814a14.994,14.994,0,0,0,4.03-2.943,56.259,56.259,0,0,0,6.354-7.279c1.085-1.548,2.48-3.1,2.79-5.111.62-1.239,1.55-2.323,2.17-3.716.775-.62,0-1.394.62-2.014a8.636,8.636,0,0,0,2.17-3.1,5.57,5.57,0,0,0,1.084-3.407c-.309-.93,1.085-1.549.775-2.478a3.07,3.07,0,0,1,.465-2.788c0-.774-1.085-.929-1.705-1.084-.619.31-1.239.929-2.014,1.394a7.91,7.91,0,0,1-4.185.929,2.427,2.427,0,0,0-2.48.31c-.93.619-1.86-.155-2.789.155-1.085.619-2.325,2.013-3.72,1.238-1.55-.774-2.945.775-4.34,1.085-.775-.155-1.55.154-2.17,0a32.818,32.818,0,0,1-2.169-2.633c-.31-.775-.62-.775-.93-.465,0-.155.155-.155.155-.31-.775-.464-1.705.155-2.48-.309a5.692,5.692,0,0,1,2.48-1.394c.93-.31.31-1.239-.155-1.7-.31-.619-.62-.619-.775-.464.31-.62-.775-.93-1.085-1.394a1.235,1.235,0,0,1-1.085-1.394c-.465-.774-.93-1.394-1.86-1.239-1.085-1.084-2.015-2.168-3.1-3.1-.465-.619-1.549.155-1.859-.774-.31-.31-.93-2.013-1.24-1.084.31,1.239-.62.774-.93,0-1.24-2.478-1.7-5.42-2.635-8.053,0-.62-.31-.775-.62-.62q.232-.7-.93-.929c-.775-.929-2.015-1.239-2.945-2.168a39.634,39.634,0,0,1-.929-6.2,7.162,7.162,0,0,0-1.24-3.872H661.2c-2.944.155-5.734-.155-8.679.155v-4.646c0-5.111.155-10.222.155-15.333-.155-1.393.31-2.942-.155-4.336-.465-1.084-1.24-2.633-.31-3.717a2.1,2.1,0,0,0,.155-2.478c-.155-.774.93-.619.93-1.239,0-1.084-2.015-1.394-2.635-1.549-1.085.155-2.015-.619-2.944-.619-.775,0-1.7-.31-1.395-1.239a7.28,7.28,0,0,0-4.34-1.084,11.5,11.5,0,0,0-4.65,2.013c-1.239.775-1.084,2.633-.465,3.717-.154,1.239-1.394,2.013-2.479,2.633-1.24.774-2.325-.155-3.255-.774a12.115,12.115,0,0,0-6.509-2.169,3.818,3.818,0,0,1-2.945-1.393c-.775-.62-.465-2.169-1.55-2.478a3.738,3.738,0,0,1-2.79-1.084,11.8,11.8,0,0,0-3.254-.465,6.158,6.158,0,0,1-3.72-.31c-.62,0-1.7-1.084-2.015-.464v-.31c-.155-.155-.465-.155-.62-.31-.465-.31-.62-1.7-1.55-.929-.93.155-1.55-.775-2.17-1.239-.774-.62,0-1.239.465-1.7.62-.774,1.7-1.084,2.17-1.858.775-.62.31-1.394,0-2.168a1.991,1.991,0,0,1-1.55-1.549c-.155-1.084,1.24-1.394,1.55-2.168.62-.93-.31-1.084-.93-.465-.465.465-1.55.929-1.705-.155a1.632,1.632,0,0,0-1.7-1.239c-1.24-.155-2.015.775-3.1,1.239-.155.155-.155.31-.31.31,0-.155,0-.155-.155-.31-.93,0-1.86.62-2.635.155a1.418,1.418,0,0,0-2.17-.465c-.775.93-1.705,0-2.479-.309-.62-.155-1.085,1.084-2.015.929a5.97,5.97,0,0,1-4.03-.155,10.377,10.377,0,0,0-3.1,0,2.712,2.712,0,0,1-2.634.31c-1.24.774-2.79.464-4.185.619a5.973,5.973,0,0,0-4.96,2.168c-.619.775-1.394-.309-2.014,0-.775.465-1.86.31-2.635,1.085a2.606,2.606,0,0,1-2.635,1.393.155.155,0,1,1-.31,0h-.775a1.879,1.879,0,0,1-1.86-1.084c-1.4,1.239-3.409.775-5.114.775-.93-.31-2.17-.62-2.635-1.7-.31-.929-1.24-.619-1.86-.31a22.847,22.847,0,0,1-2.635,5.111c-1.549,2.323-4.8,2.013-6.664,3.717-.62.774-1.705,1.084-1.705,2.013.31,1.239-.775,2.014-1.395,2.943a3.027,3.027,0,0,0,.155,3.717c.31,1.858-1.395,2.942-2.324,4.181-2.015,1.394-3.72,3.253-6.2,3.872-1.085.31-2.635.155-3.1,1.549h.31c-.62.155-.775,1.394-1.24,2.013-.31,1.394-1.859,1.7-2.944,2.478a6.555,6.555,0,0,0-1.86,4.646c-.62,1.549-2.635,2.014-3.255,3.562-.775,1.394-1.24,3.1-2.17,4.492a5.027,5.027,0,0,0-1.859,3.407h.309c-.465.155-.309,1.239-.309,1.7a.985.985,0,0,1,1.7.309c1.085.775.93,2.323.775,3.407-.62.775-.62,1.239.31,1.859,1.24,2.168.775,4.8-.155,6.969-.31.465-.465,1.394-.155,1.394a2.2,2.2,0,0,0-.31.929,7.951,7.951,0,0,1-3.254,4.8,2.594,2.594,0,0,1,1.7,1.394c.62.465.62,1.394.93,1.859s.62.774.93.774h-.465a.333.333,0,0,1-.31.31c-.775,0-.93.929-.465,1.084a.152.152,0,0,0-.155.155c.31.774-.155,1.548.31,2.168a.619.619,0,0,0,.62.31h-.155c.93.154.93.774,1.7,1.239.775.619,1.4.154,2.17.154,1.085-.154,1.085.62.31,1.085-.775.619,0,1.548.775,1.393.155.155.31,0,.465,0a1.161,1.161,0,0,0-.155.775c0,.929,1.705,0,1.55,1.084-.465.929.93,1.239,1.55,1.858.62.31,1.7.465,1.549,1.394.465.929,1.86,1.549,1.55,2.633-.155,0,0,.31,0,.31.775.31,1.24.929.155,1.239-.465.464.775,1.239,1.24,1.548.465.62,1.55.62,1.705,1.239-.31.93,1.085.775,1.55,1.394.465.31.775.775,1.24.62l-.155.155a11,11,0,0,0,2.17,1.548A14.933,14.933,0,0,1,540,257.429a33.256,33.256,0,0,0,5.735,2.943v0a1.025,1.025,0,0,0,.93-.155,23.245,23.245,0,0,1,7.129-2.633,24.913,24.913,0,0,1,4.8-.155c.62,0,1.55.62,2.17.155.465-.619.93.155,1.085.155v.155c.62.619,1.705.774,2.325,1.239a17.618,17.618,0,0,1,4.65-2.013,7.42,7.42,0,0,1,4.029-1.394c.93.309,1.395-.465,1.86-1.084l-.155-.155c.465.155,1.085-.62,1.705-.465.31,0,.31-.155.31-.31,0,.155.155.155.155.31,1.085,0,2.17-.31,3.255-.31a13.322,13.322,0,0,0,2.479-.155c.62-.464,1.4-.929,1.86-.154a6.085,6.085,0,0,1,3.255,2.323c.465.619,1.7.464.775,1.548.155,1.394,1.24,3.1,2.79,3.253a11.615,11.615,0,0,0,2.324,0,1.183,1.183,0,0,1,1.86-.31,7.241,7.241,0,0,0,2.635-.465c.155-.774.155-1.239,1.085-.619v-.155c.155.31,1.085.155,1.085.774a1.441,1.441,0,0,0,1.705,1.549c.93-.31,1.549.774.465,1.239a4.73,4.73,0,0,1,1.084,3.1A2.3,2.3,0,0,0,602.309,268.115Zm94.541-52.037Zm-99.036,47.391c-.31-.774,1.395-.774,1.24,0-.465.31-.62.93-.93,1.394C596.884,265.018,597.5,263.934,597.814,263.469Zm137.628,57.458a9.227,9.227,0,0,0,1.24,4.336c.62.929-.31,1.859-.775,2.633-.62-.465-.775-1.239-1.395-1.858-.93.309-.155,1.548-.155,2.168.465.464.93,1.394.31,2.013-.465.929-1.55,1.549-1.24,2.788.155,2.323-1.085,4.491-1.705,6.659-1.55,4.956-3.255,9.912-4.65,14.868-.309,1.239-.619,2.788-1.7,3.717-.93.619-2.17.155-3.1.619-.775,0-1.085,1.085-2.015,1.085-.93.464-.93-.93-1.86-.93-.775-.155-1.55.155-2.015-.619-.775-.31-.775-1.239-.93-2.013a1.994,1.994,0,0,1-.929-2.014c.155-.774.929-1.858.155-2.633-.62-1.084-1.705-2.168-1.24-3.562.31-.929.31-2.323,1.395-2.478.774-.619.929-1.7,1.549-2.478a6.267,6.267,0,0,0,1.085-3.252c.155-.774-.62-1.084-1.085-1.7a1.447,1.447,0,0,0-.155-2.013c-.465-.929-.31-2.168-.775-3.1.62-1.239,1.86-2.323,1.55-3.717,0-.62.155-.62.775-.62.775.155,1.24-.619,2.015-.619.775.464,1.085-.62,1.86-.62.775-.619,1.55.775,2.015,0-.62-.774.62-1.084,1.085-1.548.465-.155,1.859.309,1.085-.775-.155-.464.93-1.7,1.239-.774.775.155,1.55-.929.775-1.394-.775-.929.93-.31.93-1.239-.155-.619-.93-2.013.155-1.858q.7,1.394,1.4,0a3.744,3.744,0,0,0,1.55-2.943c-.62-.619.31-1.7.775-1.394.62.62.93,1.549,1.86,1.7C735.287,318.294,735.132,319.688,735.442,320.927Z" fill="#7699e3"/>
        </g>
      </g>
    </g>
  </g>
</svg>
