<svg xmlns="http://www.w3.org/2000/svg" width="348.718" height="218.093" viewBox="0 0 348.718 218.093">
  <g id="Page-1" transform="translate(-0.81 -0.218)">
    <g id="map" transform="translate(-778 -235)">
      <g id="normal" transform="translate(77 144)">
        <g id="map-2" data-name="map">
          <path id="Asia" d="M837.423,246.124a1.348,1.348,0,0,0,1.085,1.548c.31,1.394,1.549,2.478,1.7,3.872-.465,2.013-2.169,3.872-4.339,3.717-1.395,0-1.7-1.7-2.015-2.788-.775-1.7,0-3.717-.775-5.42.775-.62-.775-1.549.155-1.7.93.155.775-1.084,1.24-1.548-.31-1.239.155-.465.93,0C836.493,244.11,836.8,245.349,837.423,246.124Zm49.6-24.916c-.775,1.239-.93-.31-1.4,2.323-.31.774-1.7.619-1.085-.31.31-.774-1.4-.155-1.549.31-.775.31-.62-1.084-.31-1.549a10.325,10.325,0,0,0,.62-5.265A26.352,26.352,0,0,0,881.9,213c-.31.154-.93,1.084-1.705,0,0-.465,1.55-.155.775-1.239a5.359,5.359,0,0,0-1.55-1.7c-.62.31-1.705,0-1.24-.929-.31-.465-1.24-.155-1.705-.929-.31-.465-.93-.93-.93-1.239-.93-1.239-.62-2.788-1.4-4.027-.31-.62-.62-2.013-1.4-1.549-.619.465-1.549.62-1.859-.155-.31-.929-1.24-.929-.93.155.155.465.93,1.549.155,2.014-.93-.155-.93,1.858-1.55.774-.31-.929-.93-1.239-.93,0-.62,1.239-.93-1.084-1.4,0-.155.774-.62.465-.93.155,0,.774-.93,1.239-1.24.31,0-1.239-.93-.465-1.085.309-.62.31-.62-1.858-1.24-.929-.929,1.239-2.789,1.239-3.874,2.168-.465.62.62,1.394,0,2.014-.62.464-.62,1.393-1.395,1.7a3.861,3.861,0,0,1-2.635,1.239c-1.55.155-2.17,1.549-3.255,2.478-.929.929-1.7,2.323-3.1,2.633a7.7,7.7,0,0,1-3.255,2.633,2.192,2.192,0,0,0-1.4,2.168,2.355,2.355,0,0,1-2.79.929c-.775.465-.62,1.549-1.4,2.014a1.533,1.533,0,0,0-2.479.774c-.93,1.7.31,3.717-.155,5.42-.62.775.93,1.239.62,2.169-.465,2.013-1.86,3.871-2.015,5.885,0,1.394.465,2.633.31,3.872-.62,0-1.86-.465-2.015.619,0,.62-.93,1.394-.62,2.013,1.4.465-.31.93-.93.93-.775.154-1.705.619-1.705,1.548,0,1.239-1.395,1.394-2.17,2.014-.929,0-1.394-1.084-2.014-1.549-.775-.62-.775-1.394-1.24-2.168a30.294,30.294,0,0,0-3.255-8.054,8.826,8.826,0,0,1-1.705-3.407,34.093,34.093,0,0,0-2.015-5.575c-1.24-2.323-2.634-4.337-3.254-6.815a82.931,82.931,0,0,1-2.325-12.08c0-.929,1.085-1.7,1.085-2.632a2.555,2.555,0,0,1-1.4-2.323c-.31-.62.31-1.859-.31-2.014a1.277,1.277,0,0,0-1.55,1.084,1.163,1.163,0,0,1,.155,1.859c-.93,1.084-2.48,1.394-3.875,1.858-1.859.155-3.1-1.394-4.184-2.478a11.906,11.906,0,0,1-2.79-2.787c1.085-.155,2.325.309,3.41-.155a4.4,4.4,0,0,0,1.55-1.394c-.31-.775-1.55.155-2.17-.155a6.614,6.614,0,0,1-5.425-2.633c-.31-.31-.31-.464-.31-.619-1.24,0-2.634-.62-2.634-2.014,0-.929-.775-1.239-1.55-1.239-1.085,0,0-1.239-.465-1.7a1.2,1.2,0,0,0-1.86-.465c-1.4.62-2.79.465-4.185.774-.93.155-2.015.31-2.48-.619a3.708,3.708,0,0,0-2.169.774,17.826,17.826,0,0,0-4.96.31c-1.085.31-1.738-.31-1.273-1.239.155-1.239.511-3.252,1.751-3.717.93-.619,1.85-.18,2.935-.49a1.59,1.59,0,0,0,0-1.833c-.93.31-1.377-.619-1.222-1.549,0-.929-.176-1.351-1.261-1.506-1.4-.464-2.945-1.168-3.565-2.562-.62-.929-1.4-2.126-2.014-3.056-.465-.619,1.7-2.141,2.634-3.225.62-.62.465-1.13-.465-1.13a7.092,7.092,0,0,1-2.634-1.375c-.31-1.549.155-3.271-.31-4.82,0-.619.62-.717.155-1.336-.93,0-1.247-1.761-.472-2.845.465-.62,1.05-.62,1.36-1.394.309-1.084,1.281-.911,1.591-2.614.155-.31,0-.62-.155-1.394-.155-.62-.652-.771-.807-1.236-.62-.464-1.214.155-1.989,0-1.7-.929-3.119-2.209-4.824-2.984-1.4-.464-2.837-.271-4.076-1.046-.93,0-1.162-1.084-1.937-1.239-.93-.155-1.683-.328-2.458.446-1.24.465-2.44.174-3.525,1.258-.775.774-2.7,1.065-4.1.911-.774,0,.156-2-.154-2.615,0-.619.154-1.394.154-2.168.465-.774.465-1.549-.464-1.7a1.976,1.976,0,0,0-1.705-.774c-.775.155.155-1.084.775-.619,1.394.464.62-.31,0-.62.31-.774.465-1.084-.62-.774-.775-.155-1.4.31-1.705-.62-.31-.774.155-1.239.31-2.013.155-1.394.465-.31,1.085,0,.775.31,1.085-.31,1.55-.155-.155,1.084.93.465,1.549.465,1.085.774-.155-1.239.775-.465.775.31,1.55-.465.775-1.084-.465-.619-1.55-.774-1.86-1.394a5.219,5.219,0,0,0-.619-1.858,6.419,6.419,0,0,0-2.945.309c-.775.62-.155,1.239-1.085,1.7a2.378,2.378,0,0,0-.62-.929c.31-.775-.31-1.239.465-1.859.155-.774.775-1.548-.31-1.7a8.189,8.189,0,0,1-2.015-.155c-.465-.62-1.085-1.239-1.86-.929-.155-.31,0-1.394-.775-1.549-.465-.465-.62-1.394-1.085-1.859-.619-.309-2.014.155-2.014-.774-.155-1.084,1.239-.619,1.859-.619a3.5,3.5,0,0,0,2.17.154c-.31-.464-1.55-.619-1.55-1.239a6.745,6.745,0,0,0,1.24-1.548,10.156,10.156,0,0,1,2.17,0,29.866,29.866,0,0,1,3.72.155c-.465-.465-1.86-.31-1.395-1.084.465-.465,1.085-.93,1.085-1.7.31-.62-.62-1.239.155-1.7-.155-.929-1.4-.774-2.17-.929a2.1,2.1,0,0,1-2.635-.155,3.97,3.97,0,0,0-3.254.31c-1.085-.155-1.705.929-2.79,1.084-.62.155-1.55-.155-2.015.62a9.191,9.191,0,0,1-2.912,0c-.62-.93,1.362-1.271,1.052-1.891-.465-.774-1.24-.929-1.86-1.549s-2.447,0-3.222-.464c-.155.774-2.138-1.052-1.828-1.672-.154-1.084-.5-.774-1.117-1.084-.465-.31-.432-1.394-.122-1.858.929-.155.929-1.827,0-2.137.31-.619,1.64-2.013,2.57-2.013.929.155,1.085-.929,1.549-1.394,1.24-.31,1.705,1.394,2.79,1.7.775,0,.808-.155.652-1.084-.464-.775.278-1.549,1.363-1.7a3.084,3.084,0,0,0,1.86-1.239c.93-.465,2.015-.31,2.79-.929.775-.465,1.549-1.239,2.634-.929.93-.155,1.24.619,2.17.155.775-.465,1.86-1.085,2.325,0,.62.464,1.55.154,2.325.154,1.085,0,1.24.465,1.86.93.775.464,1.7.619,2.789,1.239-.62-.93,1.085-.62,1.4,0,.62.619,1.55.619,2.17.929,1.24,0,1.705-1.394,2.79-1.7,1.085.155,2.17,0,2.945.775,1.084.309.929-.93,2.014-.775.62,0,1.705-.31,2.015.465.31.929,1.395.774,2.17,1.084.775.155,1.55.465,2.17-.155.465-1.239,1.085.31,1.86,0,1.084.155,1.117.433,2.2.278a1.365,1.365,0,0,0-1.208-1.859,4.525,4.525,0,0,1-2.17-.774c-.929.155-1.7.433-1.7-.774s1.517-.465,1.982-.93c.465-.309,2.17-.464,1.24-1.239-.93-.619,0-1.238.62-1.548a1.927,1.927,0,0,0,.865-1.534c.045-.529-.086-.993-.31-1.067-1.085.155.5-1.7,1.117-1.858a27.456,27.456,0,0,0,3.565.155,10.237,10.237,0,0,1,4.185-.929c1.705-.155,3.254-.31,4.8-.31.62-.155,1.085-1.084,2.015-.929,2.015,0,4.03-.929,6.045-.774.929,0,2.169.155,2.479-.774.155-.619,1.7,0,1.86-.929,1.55-.31,3.1.31,4.495.619.775,0,2.479-.465,3.1,0,.465.465.31,1.7,1.4,1.7-.155.774.743-.433,0,.774.775.31,0,.774.775.774.775.155,2.015-.774,2.48-.155.465,1.084.62.465,1.395.465.62.31,1.86,1.207,2.48.587,1.395-.31.612,1.581,1.077,1.581.775-.31,1.093,0,1.712-.31.775-.929,2.015-1.084,3.1-1.394,1.085-.774,3.565-1.084,4.65-1.549,1.085.31,1.123,1.052,1.588,1.517,1.705.619,2.751,2.2,3.991,3.594a61.759,61.759,0,0,0,4.185,4.8c.62.465,1.24,2.169,1.86,2.169.775.154,1.085-1.085,1.705-1.394a1.585,1.585,0,0,1,2.014.929c.155.31,1.085.465,1.55.774a9.72,9.72,0,0,0,4.185-.464,2.67,2.67,0,0,1,2.635.309c.775.62,1.085.465,1.859,1.549.465.62,1.705.465,2.17,1.239.62.775.62,1.239,1.395,1.239.93,0,2.325.465,3.1-.31,1.085-.929,1.24,0,2.015.93.127.382.525.573,2.12.573s3.614-1.193,5.009-1.348c2.015-.464,3.255-2.013,5.27-2.633,2.014-.464,3.564-1.7,5.579-1.239,1.705.31,4.495,0,6.045.775.774.31.619,1.549,1.7,1.549h4.03a6.59,6.59,0,0,1,2.512.464c1.24,0,2.635.123,3.41-.806.1-.143-.644-2.1-.775-2.756-.775-.774.588-1.549,1.362-2.013.775-.775,1.7-2.291,2.48-2.911,1.86.465,3.72,1.362,5.58,1.827,1.7.155,3.254.187,4.959.341.465.62.9,2.6,1.673,3.066a6.832,6.832,0,0,0,3.132,2.013c1.24.31,2.635-.464,4.029-.619a26.308,26.308,0,0,1,6.045-.155c1.86.31,2.48,1.549,4.495,2.168a25.591,25.591,0,0,0,3.254.929,19.947,19.947,0,0,0,7.44.62c1.7-.31,3.254-.31,4.959-.775,1.4-.309,2.325-1.7,3.72-2.168a4.029,4.029,0,0,1,3.255-.31c1.084.775,2.479,1.7,3.874,1.239.775-.154,2.17-.619,2.79-.309a10.636,10.636,0,0,1,2.015.929c1.55.465,2.17-.155,3.254-.62.93-.309,1.273.123,2.048-.5.62-.775-.188-1.084.587-1.859,1.24-1.393-.122-2.478,1.892-3.1s1.363-1.55,1.208-2.325c-.62-.929-1.24-.741-.775-1.67s1.7-.5,2.48-1.116a44.861,44.861,0,0,1,6.044-1.826c1.86-.155,3.875-.31,5.58.619,1.4.774,2.944.155,4.339.31a10.158,10.158,0,0,1,3.843,4.614c.93,2.323,2.479,4.337,3.409,6.66.62,1.393,2.048.309,3.287.774a10.553,10.553,0,0,1,5.737,1.858,4.747,4.747,0,0,1,1.86,2.688c.31.929,0,2.423.93,2.113,1.55-.154,3.25,0,4.65-.619,2.01-.62,4.03-2.013,6.2-2.013a5.155,5.155,0,0,1,2.17,2.632c-.38,1.085-1.55,1.463-1.71,2.548-.77,2.478-3.25,4.886-4.96,6.745-.77.929-2.48.91-3.41.756-.77-.31-1.24-1.221-1.86-.6-.46.464-.62.464-.46,1.393a4.463,4.463,0,0,1,0,2c-.16.775.31,1.7,0,2.323a7.654,7.654,0,0,1-2.79,2.169c-.16.309-.93.018-.62.792-.93.775-2.792,1.239-2.792,2.788.155.775-.465,1.7-.465,2.478-1.705,0-2.635,1.859-4.184,2.323a2.55,2.55,0,0,0-2.79,1.859c-.62.929.62,1.394,1.24,1.858a4.713,4.713,0,0,1,1.24,1.239c.31-.155.93.62,1.239.929.775,1.394,2.17,2.478,2.48,4.182a11.584,11.584,0,0,1-.31,3.252c.93,0,1.085.31.465,1.239-.62.775-.93,2.014-1.86,1.859-.775-.465-1.549.155-2.014.774-.62.155-1.24-.619-2.015-.155-1.24.155-1.86,1.549-3.1,1.549-.93,1.084-.775-.31-.93-.929-.155-.93-.775-1.859.155-2.478.31-.465.93-1.549.465-2.014-1.085-.464,0-2.013-1.24-2.168-1.55,0,0-.774.62-.929.62.774,1.86.155,1.085-.62-.465-.619-.93-1.239-1.55-2.013-.62.774-1.24.929-1.55-.155-.775-.619-1.085,1.084-1.55.929-.154-.774-1.394-.929-1.7-1.548-.465-1.084.93-1.7,1.7-1.859.775-.619-1.394-.619-.31-1.548.465-.62.775-1.549-.309-1.7-.775-.62-1.7.465-2.325-.31-.62-.155-.62-.619-.775-.774-1.24.619-2.945.31-4.34,1.084-1.55.619-3.1,1.239-4.959,2.013.31-.464,1.859-1.239.775-1.394-1.085.465-1.24-.774-.31-1.084.93-.619,1.394-1.548,2.169-2.013.465-.774-.775-1.239-1.239-1.549a2.4,2.4,0,0,0-3.1.465c-.775.774-1.55,2.013-2.79,1.858a2.807,2.807,0,0,0-2.48,2.014,1.5,1.5,0,0,1-1.86.774c-.62.929-1.239.155-1.7-.31-1.24-.155-1.55,1.394-2.015,2.168.155,1.239,1.55,1.549,2.635,1.859.774.155,1.859-.465,2.169.465.155.929-.62,2.168.31,2.787a4.087,4.087,0,0,0,3.255-.929,2.855,2.855,0,0,1,2.79-1.239c.93.62,2.015,1.394,3.254,1.084.775-.31,1.4.155,2.17.155-.465.465,0,2.013-.775,1.7-1.4-.775-2.789.309-4.184.619a1.427,1.427,0,0,0-1.085,1.7c-.93.929-.775-.62-1.55-.31-.465.155.155,1.549-.775,1.858-.775.93-1.86,1.394-2.48,2.324-.31,1.084.775.929,1.4,1.393,1.085.775,2.325,1.394,2.635,2.788a4.33,4.33,0,0,0,1.395,2.013c.775.62-.465,1.7.62,2.014.93,0,.93,1.084,1.7,1.394.775.154,1.549,1.393.465,1.548-1.4.31.31.775.31,1.549.619.774.154,1.7-.775,1.394-1.395.155-2.325,1.239-3.72,1.394-1.24.309-.465.619.465.774s1.86-1.084,2.79-.465a2.26,2.26,0,0,0,2.014,1.085c.155.929-1.239.929-1.239,1.548.929-.155.774.465.309,1.239a5.054,5.054,0,0,0-.619,2.168c-.31,1.239-1.24-.464-1.55.62a8.729,8.729,0,0,0-1.705,3.1c-.775.31-1.085,1.085-1.7,1.549-.62-.155-1.86.155-1.085,1.084,0,.62-.465,1.394-.31,2.168-.31.93-1.4.62-1.55,1.549-.31.775-.62,1.549-1.55,1.859-.31.929-1.085.619-1.859.464-.93,0-.155,1.239-.465,1.7a5.694,5.694,0,0,1-2.635,1.549c-.62.309-1.24.774-2.015,1.084.155,1.084-.62,1.239-1.395,1.239-.775.154-.93,1.084-1.86.464-.775-.464-1.24.775-2.014.775-1.24.619-.62-.93-1.705-.465-.775,0-1.395.929-2.015.465-.465-.93-1.085-1.085-.93,0,0,.774-.155,1.7-1.085,1.7-1.085-.929-.62.929-1.55.775-.93.154-1.86.619-2.635,0-.775.309-1.085,1.239-2.014.929a3.807,3.807,0,0,0-2.325.774c-.93-.31-.93.155-1.4.929-.31.775.93,1.084,1.085,1.7-.31.465-1.55.929-1.86.31-.775-.93-1.24-2.323-.465-3.253.775-.619-1.085-1.239-1.24-.464a1.569,1.569,0,0,1-2.17-.62c-.775-1.239-.775.31-1.395.62a3.216,3.216,0,0,0-1.239,0c-.465.464-1.86.619-1.4,1.549-.465.774-1.55.154-2.17.309-.31.62-.31,1.394-.93,1.859-.31.929-1.085,1.084-1.86,1.548-.775.93-.775,2.324-1.4,3.408l2.79,2.787a2.713,2.713,0,0,0,1.085,2.478c1.4.775,2.48,2.168,3.72,3.253a1.31,1.31,0,0,1,1.549,1.239,4.384,4.384,0,0,0,1.705,2.632c1.085,2.323,1.24,4.8,1.705,7.279a2.579,2.579,0,0,0-.775,2.478c-.31.775,0,1.549-.31,2.169a2.69,2.69,0,0,1-2.325,1.7c-1.394.465-1.859,2.168-3.409,2.323-.62.155-1.395-1.394-1.7-.619-.155.774.31,1.548-.155,2.323,0,.929-1.085.929-1.55,1.239-.31,1.239-2.015.929-2.635,2.013-.62.62-1.24,1.549-2.17,1.239.155-1.394-.155-2.942.62-4.181.465-.775-.62-1.394-1.7-1.859-.465.155-.93-.929-1.55-.619-.62.154-2.015.309-1.24-.62.465-.619-.465-1.7-1.085-.929-.93.774-1.085-.465-1.085-1.239-.155-.774-.62-1.549-.775-2.633-.31.155-1.24-.31-1.705-.774-.62-.775-1.7-1.549-2.635-.93-.465,0-1.7-.154-1.7-.774,0-.774.62-1.7,0-2.168-.93-.155-2.17-.62-2.945.465,0,.619.465,1.548-.155,2.168-.465.774.465,1.858-.31,2.633-.93,2.168-2.17,4.336-2.325,6.814.155.774,0,2.013.93,2.168.62,0,1.705-.774,1.86.31,0,.619-.31,1.7.465,1.858.62-.155.465,1.394.775,1.859a4.461,4.461,0,0,0,1.085,3.1,3.861,3.861,0,0,0,2.634.465c.775.464.62,1.549,1.55,1.858.155.155.465.31.62.465,1.085,0,1.4,1.084,2.17,1.7a12.408,12.408,0,0,1,2.015,2.942c.31,1.549-.31,3.1,0,4.646a2.725,2.725,0,0,0,1.085,2.943,34.931,34.931,0,0,1,1.7,3.407,7.509,7.509,0,0,0-2.635,0,25.836,25.836,0,0,0-5.115-3.252c-.775-.62-2.014-1.084-1.86-2.169,0-1.393-1.394-2.168-2.169-3.1-.62-1.084.155-2.168-.62-3.1-.775-1.239-.62-2.788-1.085-4.027-.31-.465,0-.774,0-.929.465-1.239-.775-.155-1.24-.62-.775-.464-.465-1.394-.62-2.013-.155-.774-1.24-.155-1.395-1.239a2.888,2.888,0,0,0-1.4-1.859c-.465-1.084-1.55.31-1.705-.774-.31-1.858.775-3.562,1.085-5.885-.775-.31-.62-1.549-.155-2.013.93-.93.465-2.169,1.24-3.1-1.085.155-1.085-.774-.62-1.394a10.8,10.8,0,0,0-1.395-4.956,42.52,42.52,0,0,1-1.549-4.026c-.465-2.014-.465-3.872-.775-5.731-1.24,0-.775-1.548-1.55-2.168-.31-.929-1.4-1.084-1.085.155.155,1.394-1.24,2.013-2.325,2.478A2.462,2.462,0,0,0,887.018,221.208Zm48.2-12.409c.465.465,1.4,1.239.465,1.7a3.136,3.136,0,0,0-1.24,2.168c.31.929-.93.929-1.55,1.239-.62,0-.93.775-1.395,1.239a13.735,13.735,0,0,1-2.635-1.239c0-.929-.929-2.168.155-2.787.93-.31,1.24-1.549,2.325-1.085,0-1.239,1.085-.619,1.705-.619C933.514,208.8,934.444,209.109,935.219,208.8Zm73.151-41.5c-1.08-.31-.93-1.7-1.7-2.478-.31-.465,1.24-.62,1.39-1.239.47-1.239,1.09-.31,1.86-.465,1.24.155,1.71-1.7,2.95-1.239.62.465,1.55.155,1.86.929-.16.775-.78,1.239-1.4,1.859-.62,1.084-1.08,0-1.86-.155a1.744,1.744,0,0,0-2.01,1.394A1.73,1.73,0,0,1,1008.37,167.294Zm-3.56.155c-1.24.929-.47,2.787-1.24,3.717-.78.309-1.09.929-1.55,1.548-1.24.155,0-1.084-.16-1.7-.31-.93-.93.464-1.24.929-.62.929-1.392-.465-.46-.929.46-.775-.777-1.549-.16-2.014.47-.464,1.4-.929,1.09-1.858-.31-.62-1.09-1.7-1.552-.62s-1.085.465-1.4-.309c-.93-.31-1.085-1.394,0-1.394.775.155,2.017,0,2.327-.929a1.266,1.266,0,0,1,1.86-.155c.31.929,1.39.774,2.17.464,1.24.775-1.24,1.084,0,1.549C1005.12,166.21,1005.74,166.984,1004.81,167.449ZM1037.2,138.8c.15.775-.16,1.859.15,2.478a9.635,9.635,0,0,1,1.55,2.788,3.513,3.513,0,0,1-1.39,2.788c-.47.619-.16,1.548-1.24,1.548a1.712,1.712,0,0,0-.93,2.478c.31.93.46,2.014-.46,2.633a2.589,2.589,0,0,0-.47,3.1c1.24.619-.15.774-.62,1.239-.31.619-.15,1.7-1.24,1.7-1.08.775-.93-.464-.46-1.084.62-.774-.31-1.084-.93-.465-.31.93-1.24.62-1.86,1.239-.31.465-.16,1.7-1.09,1.549,0-.619,0-1.858-.93-1.084-.77.31-.77,1.549-1.7,1.239a5.934,5.934,0,0,0-2.33.155,2.854,2.854,0,0,0-1.86-1.239c-.46.31-1.08,1.239,0,1.394,1.4.619-.15.929-.93.929-1.08.31-1.55,1.549-2.17,2.478-.77-.465-1.7-.62-2.32-1.084,0-.775-.62-1.7.31-2.014.93-.464.46-1.548-.47-.929-1.08.31-2.01-.464-2.94.155-.62.465-1.24.31-2.02.31a28.368,28.368,0,0,0-3.41.929c-.31-.774-1.39-.465-1.55.31.31,1.394-.77.464-1.55.464-.77-.154-1.7.31-2.48-.154-.15-1.239.93-.93,1.71-1.085,1.7-.774,2.94-2.323,4.49-3.562,1.09-.464.93.465,1.71.31,2.17-.774,4.49-.464,6.66-1.239-.15.929.78,1.239,1.4.775a1.535,1.535,0,0,0,1.24-1.7c.46-1.084,1.86-1.549,2.32-2.633,0-.619-.31-1.394.16-1.858.62-.155,1.86-.93,2.01-.155-.15.464-1.24.619-1.08,1.549,0,1.084,1.08.464,1.55,0,1.39-.62,3.1-.93,4.18-2.014.31-.929,1.09-1.084,1.71-1.549.93-.464.77-1.548,1.55-2.168.62-1.084,1.39-2.323,1.08-3.562-1.24-.464-.15-1.084-.15-1.7-.31-.93-.31-1.549.62-1.859.31-.774,1.08-.929,1.39,0,.47.155,2.01-.155,1.7-.774-.15-.62-1.85-.775-.62-1.239C1035.96,137.713,1037.04,138.178,1037.2,138.8Zm12.24-8.053c.16.465,1.55,1.394.93,1.7-1.08.619-2.17,1.393-3.25.619-1.55-.155-2.48,1.394-3.41,2.478,0,1.084-.93,1.084-1.55.465-1.55-.62-2.95-1.859-4.65-1.549-.62-.155-1.55,1.239-1.86.465-.47-.93-1.39-.62-2.01-.155-.78.774.92.929,1.39,1.239s2.01.929.93,1.239c-.62.309-1.4-.465-1.86.464-.31.465-.62.929-1.08.929-.93-.619,0-1.393,0-2.013-.31-.465-1.4-.619-1.24-1.7,0-.775,1.08-.93,1.7-1.239a.881.881,0,0,0,.47-1.549c.61-.929,1.39.619,2.16.464,1.09,0,.78-1.084.78-1.858.15-.62,1.7-.465,1.39-1.549a3.5,3.5,0,0,0-.46-2.787c-.62-.775.31-1.239.93-1.549,2.48,2.168,4.96,4.646,8.37,5.111,1.24.464,1.86-1.085,3.1-1.239C1050.06,129.35,1048.82,129.97,1049.44,130.744Zm-78.109,61.329c1.24.465.465.93.155,1.859a3.11,3.11,0,0,1-.62,2.013,6.951,6.951,0,0,1-1.55,4.182,5.034,5.034,0,0,0-.62,2.168c-.155,0-.155.155-.31.155a19.342,19.342,0,0,1-1.395-1.859,3.875,3.875,0,0,1-.465-3.872c.93-1.239,1.705-2.632,2.79-3.871C970.091,192.693,970.711,191.609,971.331,192.073Zm22.473,85.8c.155,1.085-1.085-.464-1.24-.619-.465-.62-1.085-1.239-.93-2.013v-.155c0-.93-.93-1.7-.31-2.633-.775-.774-.155-2.013.31-2.788.465-1.084.93-.774,1.24.155-.155.929-1.24,1.7-.93,2.633.465.31,1.24-.774,1.24-1.394.31-.155,1.7-1.239,1.55-.31.31.93-.465,1.239-1.085,1.7-.775.774.775.619,1.24,1.084.465,1.084-.465.465-1.24.31-.775-.31-1.55.155-1.395.929A5.381,5.381,0,0,0,993.8,277.872Zm-71.759,6.04a1.164,1.164,0,0,0-.31,1.549c-.93-.464-2.17-.774-2.17-2.013a1.778,1.778,0,0,0-2.015-1.239c-.31-.31.465-2.014.93-1.084.465,1.239.775-1.549,1.085-.31A4.19,4.19,0,0,0,922.045,283.912Zm105.705,15.952c.77.31,1.39.929.62,1.7-.31.619-1.09,1.084-1.55,1.7h-.47c-.62-.154-2.17,0-1.24-.929C1025.73,301.258,1026.51,299.864,1027.75,299.864Zm-39.216-14.248c.465.31,1.24.774,1.4,1.394-.155.619-1.085.464-1.55.774a2.924,2.924,0,0,1-2.015-1.549C986.674,285.461,987.759,285.771,988.534,285.616Zm47.706,12.7c.62,1.858.15,4.026.15,5.885.16.929-.9,1.548-1.67.464a20.224,20.224,0,0,1-2.48-2.633c-1.24-.154-2.32.465-3.56.31-.16-.774,1.08-1.239.62-2.013a6.4,6.4,0,0,1-1.55-2.013c.31-.155,1.86,0,.62-.775a3.661,3.661,0,0,1-1.86-2.168c-.93-1.239-1.4-2.788-2.95-3.407a39.169,39.169,0,0,0-6.04-1.859,5.437,5.437,0,0,1-2.64-.929c.47-.929-.62-1.084-1.24-.774-1.24-.155-2.48-1.394-1.86-2.633-.46-.774-.93.774-.93,1.239a2.486,2.486,0,0,1-1.86,2.013c-.46-.155-1.24-1.394-.31-1.7.31-.62-.46-1.239-1.08-1.549-.47-.62-1.71-.465-1.71-1.239.31-.62,1.4,0,2.02.155.77,0,1.08-1.239,1.86-1.084.46.619,1.55.464,2.17.155.31-.62.15-2.014-.78-1.085a13.413,13.413,0,0,1-3.56.155c-.93,0-2.02-.464-2.02-1.548-.15-1.394-1.86-1.085-2.79-1.239.31-.155.16-1.549.62-1.7a8.219,8.219,0,0,0,3.26-1.7c1.86,0,3.41,1.549,5.27,1.549a1.9,1.9,0,0,1,.93,1.859c-.31.774-.62,1.548,0,2.168.31.929.31,2.168,1.24,2.633.15-1.394.62-.62.77.309a1.762,1.762,0,0,0,2.95.93c.93-.775,1.39-2.014,2.17-3.1a5.7,5.7,0,0,0,2.79-.619c-.16-1.084.93-1.239,1.55-1.7,1.08-.774,2.17.31,3.1.62,2.48,1.084,5.89,3.685,8.67,4.459.16,4.027.28,6.382.44,10.408A1.859,1.859,0,0,0,1036.24,298.316Zm-37.477-13.474c1.237.309,2.477.619,2.947,1.7.15.465.31.929.15,1.239-1.39-.155-2.167-1.549-3.407-1.858-1.085-.155-.155,1.548-1.4.774-.93,0-1.24-1.239-2.014-.774-.62.309-1.4,1.084-1.705,0-.62-.62-.31-1.549.62-1.239.93.155,1.859,0,2.634.619C997.368,285.306,997.988,284.377,998.763,284.842Zm-11.314,18.429a11.731,11.731,0,0,1,2.325-.154c.31.774-.93,1.084-1.55,1.393-2.015.93-4.649,1.084-6.354,2.943A5.7,5.7,0,0,1,979.235,309a1.674,1.674,0,0,1-1.24.309c.62-.619,0-1.858.93-2.323,1.24-1.084,3.41-1.084,4.185-2.942C984.5,303.426,986.054,303.736,987.449,303.271Zm-68.5-8.827c-.775.309-.93-1.084-1.4-.62-.464.62-.62,1.394-1.394.62-.93-.775-1.24,0-.465.774-.31.774-.93-.619-1.395-.929a31.061,31.061,0,0,0-5.89-5.111c-.775-.619-.62-1.858-1.705-2.168-1.7-.929-2.634-2.478-3.719-3.872a5.461,5.461,0,0,0-.465-2.168c-1.24-2.013-2.17-4.337-4.185-5.73-1.085-.155-1.085-1.085-1.395-1.859-.155-.929-.93-1.858-.775-2.788a4.946,4.946,0,0,0-2.789-2.168,1.534,1.534,0,0,1-1.24-1.7c-.31-1.549-1.86-2.323-2.635-3.562-.93.464-1.55,0-2.015-.775-1.395-1.239-2.945-2.787-3.1-4.8.31-.929,1.705-.464,2.17,0a3.78,3.78,0,0,0,3.41.929c.775-.154,1.705-.774,2.17.155.775.775,1.24,1.7,2.17,2.168a1.664,1.664,0,0,0,.929,1.859,31.727,31.727,0,0,0,4.495,2.788c.155.774,0,1.393,1.085,1.393a6.75,6.75,0,0,0,2.015,2.169c.62,0-.31-1.394.93-.62.465.775.93,1.859,2.014,1.859,1.55.309,1.24,2.168,2.48,2.787,1.085.62,2.48.155,3.41,1.239.155.31.775.62.775.93a12.91,12.91,0,0,1-1.24,1.858c-.775.62.62,1.239,1.085,1.549.775.464,2.015-.155,2.17.929.31.929,0,2.168.93,2.633,1.4-.31.465.774.155,1.394.465.774,1.24-.93,2.014-.155a1.831,1.831,0,0,1,1.4,1.394,1.366,1.366,0,0,1,.62,2.013,4.709,4.709,0,0,0-.31,3.562A11.816,11.816,0,0,1,918.945,294.444Zm31.618,8.053c1.394.465.154.62-.465,1.239a.541.541,0,0,1-.155.31c-.62-.62-1.705-.775-2.015-1.549C948.858,302.652,949.788,301.723,950.563,302.5Zm-6.045-39.957c.775-.774,1.24-1.858,2.17-2.323.775-.31,1.55-.31,2.17-1.549.62-1.084,1.085-.155,1.085-.155.465,0,1.7.155,1.549-.774-.929-.465-.775-1.549.31-1.394.93.465.465-1.084,1.4-1.239.62-1.084,1.55-1.7,1.86-2.787.31-1.549.775.774,1.4,0,.465-.93.775.929,1.55.929.93.309.155,1.239-.155,1.858.155.775,1.55-.464,1.86.155-.62.929,0,.929.93.62,1.084-.155,1.859,1.084,2.789,1.239.465.929-.93,1.239-1.705,1.239-.619,0-2.169-.155-1.7.774.31.465,1.859.929.93,1.549-.62.464-1.86.154-2.325.774.155.619.775,1.549-.465,1.394-1.085,0-1.085.31-.775,1.084-.31.619.93.929,1.085,1.7.465.774,1.55,1.548.775,2.323-.62.929.62,1.7,1.24,2.013a6.257,6.257,0,0,1,2.014,2.013c-.929.465-2.169,0-3.1-.155-1.085.31-1.395,1.7-1.55,2.633-.31,1.084.62,2.168.155,3.253-.465.464-1.4-.31-1.86.774-.93.619-1.4,1.858-2.48,2.478.155.31,1.085,1.549.62,1.7-1.55-.154.155.62-.155,1.394-.465.775-1.24,1.394-1.4,2.323-.93,1.394-2.789,1.549-4.029,2.478-.465-.619-.31-1.548-.775-2.168-.31-.619-1.24-1.394-1.7-.465-.62,1.085-1.085,0-1.705-.464-.93,0-1.085-.774-1.86-1.084-.31.619-.465,1.858-1.4,1.548-.775-.464-1.24.465-1.859.62-.465-.31,0-1.394-.465-2.013-.155-1.549-.775,0-1.55,0a1.833,1.833,0,0,1-2.17-.155c-.62-.155-1.705.929-1.55-.31a19.212,19.212,0,0,0-.465-4.182,4.011,4.011,0,0,0-2.325-2.168c-.31-.464,1.24-.774-.155-1.239-.93-.464.31-1.394-.465-2.013a2.255,2.255,0,0,1-.775-1.858,4.341,4.341,0,0,1,1.085-2.943c0-.929.93-1.549,1.24-.62-.155-.154-.155-.154-.155-.309a2.211,2.211,0,0,0,1.86.929c1.24-.155,2.17,1.549,3.41.929a1.236,1.236,0,0,1-.31-2.013c.62-.775.62-1.859,1.24-2.478,1.55-.929,3.719-.62,5.114-1.859C943.433,263.779,943.588,262.85,944.518,262.54Zm2.79,38.718c-.155.774-1.085,1.549,0,2.013.93,1.085-.465.155-1.085.155-1.4-.464-2.945-1.548-4.34-.619-1.55.155-2.944-.31-4.339-.31a6.671,6.671,0,0,1-4.185-1.239,12.63,12.63,0,0,0-4.8-.929,3.083,3.083,0,0,1-3.254,0c-1.085-1.084-2.945-.31-4.185-.929.62-.62.93-1.239-.31-1.394a28.066,28.066,0,0,0-3.565-.465c-.31-.774,1.55.31,1.55-.619.155-.93.62-.775.775-1.7s1.24.155,1.86-.155c.465.155,1.24,1.084,1.705,0,0-.619,1.4,0,1.705.465.62.155,1.24.774,2.015.464.775-.464,1.239.62,1.549,1.239.155.93,1.4.155,2.015.775,1.4-.31,2.945.619,4.185-.155.155-.774.465-1.549,1.4-1.394.62.62.775,1.394,1.7,1.239a11.024,11.024,0,0,1,3.254.62c.93.309.31,1.238.93,1.858a4.359,4.359,0,0,0,3.1.929A1.843,1.843,0,0,1,947.308,301.258Zm22.163-27.567a3.986,3.986,0,0,0-3.565,1.084c-.775,1.084-.775,2.943.62,3.562.93.155.62,1.239,1.4,1.549.775,0,1.7.155,2.015-.62.31-.619.775-1.7,1.55-1.084s1.55-.31,2.324-.31a3.938,3.938,0,0,0,2.015-.774c.93,0,1.085,1.394.62,1.7a1.344,1.344,0,0,0-2.015.309,4.018,4.018,0,0,1-2.634,1.859c0,1.239-1.55-.155-1.55.619.31.62,1.085.93,1.55,1.549.62.62,1.084,1.549,1.7,2.323-.31.929-.62,2.168.31,2.788.465.31,1.705,1.394.775,1.549-.93-.155-2.169.154-2.169,1.239-.155.619-1.705.154-1.705-.465-.155-.774.775-1.7-.155-2.168-.62-.775-1.705-1.084-1.86-1.859.31-.619.93-1.394.465-2.168-.31-.465-1.55-.31-2.015.155-1.085.465-.31,1.239-.31,2.013.31,1.239-.775,2.478,0,3.717.62.775-.465,1.394-.465,2.168.775.93-.155.93-.93,1.239-.62.465-1.7.465-1.7-.464-.31-.62.62-1.394.465-2.168a11.434,11.434,0,0,0,0-3.253c.155-1.084-.93-1.084-1.55-.774-.93.31-.31-1.084-.775-1.7-.464-.929.31-1.548.775-2.168a3.034,3.034,0,0,0,.775-2.788,2.856,2.856,0,0,1,.775-2.478c1.085.155.155-1.239.62-1.858.155-.31.155-.774.31-1.084.465-.929.775-2.168,1.86-2.633.62,1.084,1.085,0,1.395-.619.465-.93,1.705-.62,2.325-.155.775.774,1.86.464,2.789.464.93.155,1.86.93,2.635.31,1.705-.155,3.565.465,4.96-.774a2.346,2.346,0,0,1,1.085-1.7c.62-1.084,1.085,0,.62.774a12.917,12.917,0,0,1-2.48,3.253c-1.24.155-2.79,1.084-3.875,0a9.423,9.423,0,0,0-2.945-.155Zm6.509,28.341c.155.155,0,.465.155.775-.93.155-.775.929-1.86,1.084-.775.465-1.549.31-2.169.774-.62.31-1.4-.619-2.015.155-1.085.31-1.86-.464-2.945-.31a.858.858,0,0,1-1.085-1.239,3.353,3.353,0,0,1,3.41-.154c.62.154,1.4,1.239,2.015.309a2.653,2.653,0,0,1,2.169,0c.775-.155.775-.774,1.7-1.084C975.205,301.878,975.05,301.413,975.98,302.032Zm-13.949.62c.62.31.775.929,1.085,1.7-.31,0-1.085-.31-1.549.154-1.085.62-.62-1.084-1.4-.154-.62.619-1.55.309-2.17.774a5.16,5.16,0,0,1-2.17.155c-.775-.31-.465-1.394-.155-1.7.62-.464,1.4-.155,2.17-.155.31.155,1.085,1.239,1.55.31.62.155.775-.31.155-.465-.93,0-1.24-1.239-.155-1.239a3.125,3.125,0,0,0,1.705.465C961.257,303.581,961.257,303.117,962.031,302.652Zm4.34,4.181c.62.465,1.705.775,1.86,1.549a.982.982,0,0,1-.93.775c-1.4-.62-2.635-1.859-4.185-2.014-1.085-.464.62-.929,1.24-.774C965.131,306.369,965.751,306.059,966.371,306.833Zm17.978-68.918c-.154.155-.31.31-.464.31-.62-.31-1.4-.774-1.55-1.394.465-.774-.465-1.394-1.085-1.7-.62-.155-1.55-1.549-.31-1.394.93-.155,2.17-.62,2.635.464A26.369,26.369,0,0,0,984.349,237.915ZM976.135,239c.62-.62,1.55.154.93,1.084a9.345,9.345,0,0,0-.93,3.407c.31.464.775,1.549-.155,1.7-.465-.929-1.86-1.084-2.015-2.168.155-.929,1.55-.619,1.395-1.7A10.2,10.2,0,0,1,976.135,239Zm-13.174,1.548c.775-.774.155-2.168,1.24-2.478a4.23,4.23,0,0,0,.62,2.168c0,.62-1.395.775-1.7,1.394-.155.155-.465.155-.62.31C961.257,241.942,962.806,241.013,962.961,240.548Zm-2.169,2.323c.465-1.239.929-.155.62.775-.31.774-1.395.774-1.86,1.394a2.014,2.014,0,0,1-1.705,1.393c-.31.155-.465.465-.62.62-.93,0,.31-1.239.62-1.7A14.711,14.711,0,0,0,960.792,242.871Zm15.033-6.04a1.757,1.757,0,0,1-.62,2.014,9.873,9.873,0,0,1-2.789,1.548c.155-1.548.464-2.942.464-4.336C973.655,236.831,974.74,237.451,975.825,236.831Zm-1.705-5.885a5.166,5.166,0,0,0-2.324-1.858c-.775-.155-1.085.929-1.86.774-.62-.465-1.55-.774-1.7-1.549a1.379,1.379,0,0,1,2.015-.464c1.24-.155,0-.775-.62-.93-.465-.464-1.55-1.238-1.7-.154-.155.154-.155.154-.155.309a3.717,3.717,0,0,1-1.705-2.323c-.62-.929.31-2.168-.62-3.1.155-1.239,1.085.31,1.705.464.775-1.084-.31-2.323.31-3.407.155-1.548,0-3.407.93-4.646,1.4-.929,2.635.774,4.03.62.464-.775,1.549-.465.929.464a2.469,2.469,0,0,0,0,2.323,1.215,1.215,0,0,1,.62,1.859,3.412,3.412,0,0,1-1.859,2.478c-.775.309-1.4.619-1.24,1.548-.31.93-.62,1.394,0,2.169.465.929.62,2.168,1.24,2.942s1.239.775,1.549-.155a1,1,0,0,1,1.86.465c0,.774.93,1.549,1.395.619.31-.774,2.015,0,1.4.465-1.085.155-.62.929,0,1.549.93.619.31,1.394-.62.774-1.085,0-.62-1.084-1.4-1.549-.62-.619-1.24-1.548-2.17-1.548C973.655,229.707,975.05,230.791,974.12,230.946Zm-3.564.465a3.064,3.064,0,0,1-.465,2.633c0,.154-.155.309-.155.464a2.8,2.8,0,0,1-1.55-2.168c.155-.619-1.395-1.7-.62-1.7C968.7,230.636,970.091,230.172,970.556,231.411Zm16.583,16.261a2.829,2.829,0,0,0,.465,2.633c.155,1.084-.62,2.014-1.085,2.943-.465-.31-.465-1.239-.93-1.859-.775-.464-1.085.93-1.394,1.394-.62.62.464,1.239.464,2.013a2.3,2.3,0,0,1-.62,2.169c-.929-.465-.309-1.084-.464-1.859-.93-.619-.775,1.394-1.55.62-1.24-.62-2.79-1.549-2.635-3.1-.155-.774.93-1.394.465-2.323a3.157,3.157,0,0,0-2.325-.929c-.155.929-1.24,1.084-2.015,1.084.31-.929-.775-1.394-1.085-.465q-.7,1.163-1.394,2.324c-1.085-.31-.31-1.549,0-2.169a1.679,1.679,0,0,1,2.014-1.548c.62-.62.775-1.394,1.705-1.549.775-.31,1.705,0,1.705.929-.155.929,1.085.31,1.55,0,.155-.929.93-1.549,1.705-.929.465,0-.155-1.859.775-1.549.465,1.549.62-.31,1.4-.155.929.155.464-1.394.31-2.013-.156-1.394.619,0,1.084.465.62.774,1.55,1.858.775,2.787C985.434,247.827,987.449,246.588,987.139,247.672ZM734.822,140.811c.62-.155,1.86.929,1.085,1.084a2.318,2.318,0,0,0-2.015.155c-.93,0-.465,1.084-.93,1.7-.62.62.62,1.394-.465,1.394,0,1.549-.465.155-.93.62-.155.774-.31,1.084-.465,1.858a5.147,5.147,0,0,1-.465.929c-.465-.619-1.4-.309-1.705-.929-1.55-.619-.93-1.239-.31-1.394.775-.155-1.859-.929.155-1.084.465-.155.31-.619-1.24-1.239-.465-.31-1.084.465-1.859.62-.775.309-.93.929-1.55,1.084,0,.155-.62.155-.775.155v.154c-.465.62-.93.62-1.24.31,0,.31-.31.155-.93.155a2.082,2.082,0,0,1-2.325-1.084c-1.085-.155-1.24-1.394-2.015-1.859-.465-.774-1.24-.774-2.014-.774a.9.9,0,0,1-1.085-1.394c.775-.774,0-1.394-.465-1.858l-.31-.31c-.93-.465-1.55-1.549-2.635-1.549a3.446,3.446,0,0,1-2.48.465c-.775-.155-2.015.155-1.085-.774.465-.93-.155-2.169-.465-3.253-.465-1.239-1.705-1.548-2.944-1.7a7.242,7.242,0,0,1-1.55-.775c.155-.929,1.242-1.022,1.862-1.022,1.085,0,2.012.857,3.1.547.93.93,2.325.475,3.565.475.62.465,1.792,0,2.257.775.62.619,1.463.309,2.238.774-.62.62,1.128.173,1.593.019.31-.62,1.737-.465,2.2,0,.465-.775,1.629.446,2.094.6s2.015.525,1.395,1.454c-.31.464.827.249,1.447.4.775-.155,1.5.619,2.118,1.084.62.31,1.394.31,1.549.929.775,0,.536.62,1-.309.465-.775.7-.775,1.944-.465.62-.155.93.929,1.55,1.239.775.465.465,1.549,1.24,2.013A1.935,1.935,0,0,0,734.822,140.811Z" fill="#7699e3"/>
        </g>
      </g>
    </g>
  </g>
</svg>
