<svg xmlns="http://www.w3.org/2000/svg" width="217.473" height="145.415" viewBox="0 0 217.473 145.415">
  <g id="Page-1" transform="translate(-0.818 -0.926)">
    <g id="map" transform="translate(-1019 -429)">
      <g id="normal" transform="translate(77 144)">
        <g id="map-2" data-name="map">
          <path id="Australia-and-Oceania" d="M1064.01,297.851a1.181,1.181,0,0,0-1.7-.62c-.47-.774-1.55-.929-2.17-1.393-.47-.775,1.08-.465,1.55-.62.93.155,2.17.62,3.1,0,.31-1.394.62,0,1.39.31.93,0,2.33-.155,2.64-1.394.15-.929,1.24-.465,1.86-.929.15-.62-.31-1.7,0-2.014.77.775,1.55-.464,1.86.155a1.642,1.642,0,0,1,0,2.014c-1.09-.155-1.24.774-.31,1.239.15.774-1.09.929-1.71.774-.93-.31-.93.619-1.55,1.084a6.99,6.99,0,0,1-3.87,1.084A2.244,2.244,0,0,1,1064.01,297.851Zm-28.36,9.447a45.6,45.6,0,0,0-.16-6.505c-.15-.774-.93-1.7-.31-2.323.62-.929.16-2.323.31-3.407,0-3.1-.15-6.04-.15-9.137,2.17.619,4.18,1.394,6.2,2.013a10.037,10.037,0,0,1,3.72,1.549c.62.619,1.55.31,2.17.464.62,1.549,2.48,1.549,3.41,2.788.93.465-.16,1.394.15,2.168.62.62,1.71.465,2.48.93a10.359,10.359,0,0,0,3.1.929,3.8,3.8,0,0,1,1.4,1.7c.31.93-1.24.465-1.71.62-1.08,0-1.24.929-.62,1.549.62,1.548,2.17,2.323,3.41,3.1a6.138,6.138,0,0,0,1.55,2.943c.78.464,1.71-.31,2.33.154-.16.62-.78,1.394.46,1.549.47,0,2.33.31,1.4.775-1.4.154.15.774.77.929a2.022,2.022,0,0,1,1.71,1.394c.31.929-1.24.464-1.71.464a1.512,1.512,0,0,0-1.86-1.084,13.023,13.023,0,0,0-4.18-.619c-1.09,0-2.48-.465-2.79-1.7-.62-.774-2.02-.774-2.48-1.858-.78-1.085-1.55-2.323-2.33-3.408a11.964,11.964,0,0,1-4.03-1.084c-.77-.309-1.55.775-2.32,0-1.24-.929-.31.31-.31.93-.47.154-2.02-.31-.93.774a7.591,7.591,0,0,1-2.64.155c-.62-.155-2.01-.155-.77.31a4.644,4.644,0,0,1,2.94,1.858c-1.08.465-2.17,1.549-3.41,1.084A24.7,24.7,0,0,1,1035.65,307.3Zm19.06,113.986c-1.39-.774-3.1-.929-3.87-2.478-.31-.465-1.55-1.394-.93-1.7.62.31,1.7.62.93-.464-1.24-1.239-2.64-2.478-2.79-4.337-.31-1.239,1.08-.309,1.7-.309,1.4.309,2.79.774,4.03,1.084,1.4.155,2.48-.775,3.88-.465.46-.465,1.55-1.084,2.01-.465s.31,1.7.31,2.478c-.46,1.085-1.24,2.169-1.24,3.408-.46.929-1.7.464-2.48,1.239C1055.64,420.045,1055.49,421.129,1054.71,421.284Zm-14.57-108.565c.78.309,1.55.929,1.4,1.858,0,.774,0,2.013,1.08,1.7.78.464-1.08,1.548,0,1.858,1.4.31,1.09,2.013,1.24,3.252a6.788,6.788,0,0,0,1.09,3.1c.62.774,1.24-.31,1.86-.465.15.929.93,1.084,1.55,1.549a1.423,1.423,0,0,1,1.08,1.7c0,1.084.78,2.168.47,3.252-.16.774.93,1.239,1.08,2.013a4.1,4.1,0,0,1,.78,4.337c.77.774.77,2.013,1.39,2.787,1.09.62,2.17,1.549,3.57,1.549a3.724,3.724,0,0,0,2.79,2.013c.62,0,2.17-.154,1.39.93-.77.774.16,1.393.78,1.7,1.08.31.93,1.7,1.39,2.478.47,1.084.31,2.633,1.71,3.1,1.24.929-.31-1.549.62-.93a9.074,9.074,0,0,0,2.17.93c.46.929.15,2.168.46,3.1a5.727,5.727,0,0,0,2.95,1.7c.77.464.62,2.013,1.7,2.168.78.31.16,1.858,1.24,2.013s.93,1.7,1.24,2.478a7.591,7.591,0,0,1,0,3.252c-.62.775.16,1.394.47,2.014a5.646,5.646,0,0,1,.93,3.872c-.62,1.548-.78,3.407-1.4,5.11-.62.93.16,2.014-.15,2.943-.16,1.549-1.55,2.478-1.71,3.872-.46.774-.93,1.548-2.01,1.548-.78.31-1.24,1.239-1.71,1.859-.31,1.084-.31,2.323-1.24,3.1-.77.62-.31,1.394-.62,2.169-.31,1.084-2.01,1.084-2.17,2.323a17.559,17.559,0,0,0-.62,4.956,2.651,2.651,0,0,1-2.63,2.013c-1.55.155-3.26-.155-4.65.929a18.1,18.1,0,0,1-2.95,1.7c-.31.774-1.7.309-1.86.619.93.929.47.775-.46.31-.62-.465-1.71-.62-2.17-1.084.15-1.084-1.09-1.549-1.86-2.013-.47-.155-2.33.309-1.55.774,1.39.464.15.619-.62.774a28.06,28.06,0,0,1-3.1,1.394,26.751,26.751,0,0,0-4.5-1.7c-.77-.464-1.39.31-2.01.155a8.914,8.914,0,0,1-3.87-2.323,2.273,2.273,0,0,1-1.24-1.858,3.441,3.441,0,0,0-.93-3.562c-.78-.31-.16-1.859-.93-1.7-.93,0-1.55.775-2.48.775-1.24.309-.93-.62-.16-1.085.31-.774.78-1.858,0-2.478-.62-.464-1.08-2.013-1.55-.619-.62.774-.46,2.013-1.24,2.633-.77,0-1.39.31-2.17.31.31-.775.31-1.7,1.4-1.239,1.24-.465,0-1.859.62-2.478.46-.93,1.24-1.549,1.08-2.633a.938.938,0,0,0,.47-1.7c-.62-1.084-.62-.774-.93.155-.62.465-1.4.774-1.71,1.7a1.987,1.987,0,0,1-1.86,1.548,5.433,5.433,0,0,0-2.63,2.633c-.31.929-1.09,1.394-1.4.155a7.309,7.309,0,0,0-2.17-4.181c-.31-.775-.46-1.7-1.55-1.394-.77.155-1.24-1.084-.46-1.394a3.645,3.645,0,0,0-1.55-1.859c-.78-.154-1.86.465-2.64-.154-.62-.465-1.39-.93-2.17-.31-1.39.155-2.17-1.239-3.41-1.549-.77-.465-1.7.465-2.63.31-2.482.155-5.116-.155-7.286,1.084a19.777,19.777,0,0,1-4.34,1.084c-1.55.155-3.255-.155-4.8.62a22.419,22.419,0,0,1-4.029,1.7c-1.24.62-1.705,2.168-2.79,2.943-1.085.619-2.48,0-3.565.464-.775.465-1.394,0-2.169-.309a32.049,32.049,0,0,0-5.425.464,2.291,2.291,0,0,0-2.48,1.084c-.465,1.084-1.705.31-2.479.465a4.251,4.251,0,0,1-2.635,2.013,10.9,10.9,0,0,1-4.495-.155c-1.86-.309-2.635-2.323-4.494-2.323-.465-.464-.465-1.548-.465-2.323a1.421,1.421,0,0,0,2.014-.774,7.418,7.418,0,0,0-.464-6.969c-.93-1.549-2.015-3.253-1.705-5.111,0-2.478-1.7-4.491-3.1-6.195a2.784,2.784,0,0,0-.31-2.478,21.638,21.638,0,0,0-2.325-2.943c-.775-.929.155-1.393.31-.154.31.464,1.4,1.548,1.55.774-.31-.774-.31-1.549-1.085-2.013-.775-1.085.155-.775.62,0,.62.464.62,2.013,1.55,1.858-.31-.774.62-.774.31-1.7-.93-1.7-2.79-3.1-2.635-5.265,0-1.084,1.085-1.7,1.24-2.788a5.59,5.59,0,0,0-.465-2.788c0-.774.775-1.393.93-2.168.62.465,0,1.859.93,1.859.93-.155.31-1.7,1.4-2.014,1.4-.929,3.1-1.548,4.339-2.787a4.564,4.564,0,0,1,3.875-1.239c1.085,0,2.17,0,2.79-.93.93-.774,2.635.155,2.944-1.239.465-.774,1.55-.154,2.17,0,1.55.155,3.1-.774,4.495-1.393a7.348,7.348,0,0,0,2.48-3.253c.62-.774,1.7-.929,2.17-1.7,0-.93-1.085-2.323,0-3.1a7.544,7.544,0,0,0,1.7-2.168c1.4.619,1.24,2.478,2.325,3.252.465-.619,0-2.168.93-1.239.775.31.93-1.394,0-1.239-.62-.155-.775-1.858.155-1.394.93-.154,1.7.62,2.79.31,1.4.155.465-.155-.31-.619-.93,0-.155-1.239-.31-1.859.155-.774,1.085-1.394,1.705-.619,1.085.774.31-.62.62-1.239.31-.775,0-1.7,1.085-1.7.774-.155,1.7.31,1.859-.774.155-.62.93-1.7,1.55-.929.31,1.239.775-.62,1.24-.93.31-.774,1.085.93,1.86.62.775.31.93,1.394,1.7,1.7.62.465.465,1.394.31,2.169.465.774.93-.775,1.395-1.084.62-.31,1.549,0,2.169,0,.775.154,1.24.929,1.86,1.084,0-.775,1.24-1.394.31-2.014-.62-.309-1.55-1.084-.62-1.548.93-.31.465-1.239,1.085-1.7.62-.31,1.547-.774,1.085-1.549.155-.619.462-1.548,1.242-1.7,1.08.155,1.08-.465,1.08-1.084.47-.93,1.4-.31,2.02,0,1.24-.31,2.79.154,3.87-.62-.15-.774-.31-1.858-1.24-2.168-.62.31-1.55-.465-.46-.62.93-.464,1.39,1.394,2.32.775a6.416,6.416,0,0,0,3.57,1.7c.77.31,1.55,0,2.48,0,.31.62.93,1.394,1.7.93a1.327,1.327,0,0,1,2.02,0c.46.464,1.24,1.393,1.55.309-.16-1.239.62-.774,1.24-.155,1.24.31-.31.93-.31,1.7-.31.62-.16,1.549-1.24,1.394-.78.31-1.55.774-1.24,1.549.77.464.31,1.394-.16,2.013-.31.774-1.55,1.084-1.24,2.168,1.24,1.239,2.95,1.7,3.88,3.1.46.929,1.39,0,2.17.619,1.39.465,2.32,1.7,3.56,2.478.78.31,2.17,0,2.64.929.15,1.239,1.55,1.549,2.48,2.014s2.01-.31,2.94-.62a13.881,13.881,0,0,0,2.01-4.027,7.685,7.685,0,0,1,1.24-3.716c0-.93-1.24-1.549-.62-2.324.31-.774.62-1.548,0-2.168a17.607,17.607,0,0,1,.31-2.787c.47-.465,1.4-.93.47-1.549-.62-.62.46-1.239.62-1.859a7.285,7.285,0,0,0,.62-2.632A5.668,5.668,0,0,0,1040.14,312.719Zm109.11,87.347c.93.465,1.4.155.78-.774.15-.929,1.39,0,1.39.62.47.619.16,1.858,1.24,2.013,1.4.31,2.64,1.394,4.03,1.084.93-.619,2.02-1.394,3.1-1.084.93.31.31,1.549.16,2.168,0,1.084-.93.929-1.71,1.084,0,.62-.15,1.549-1.24,1.239-.77-.155-2.17.31-1.86,1.239a1.11,1.11,0,0,1-.46,1.859c-1.71,1.548-2.64,4.026-4.96,4.8a2.554,2.554,0,0,1-1.71-1.084c.16-.775.78-1.239.93-2.014.78-.619.78-1.394-.15-1.7-1.24-1.239-3.41-1.084-4.34-2.478.62-.465,1.71-.775,2.48-1.239.93-.31.62-1.394.62-2.169.15-.619,1.24-1.238.46-2.013-.77-.619,0-1.549-.62-2.168a16.821,16.821,0,0,0-1.54-1.859c.31-.619-.62-1.238-1.09-1.548-1.08-.465,1.24,1.084.47,1.084-.93-1.084-1.86-2.323-2.79-3.407-.47-.465-.16-1.239-.62-1.859s-1.71-1.239-.31-.929c1.08-.465,0,.774.77,1.239.47.774.93,0,1.55.619.62.31,1.55.31,1.71,1.085.77-.775.62.464,1.24.774.46.31.15,1.239-.47.774.47.62,1.55.93,1.55,1.859-1.08-.31,1.24,1.239,0,1.084-1.55-.155.31.31.15.774.47.31,1.71-.155,1.09.775C1148.94,400.066,1149.41,400.066,1149.25,400.066ZM1138.56,421.9c-.46.465-1.24.62-1.86,1.084-.15.93-2.01-.619-1.39.465.77.31.46,1.394.31,1.859-.47-.155-2.33-.465-1.09.154,1.24.155.31,1.085,0,1.7-.46.774-.62,1.858-1.7,2.168-.78.31-1.09,1.084-1.86,1.239-.62.31-1.24,1.084-2.17.62a4,4,0,0,0-2.33-.155c-.62-.775-1.7-.775-2.63-.929-.31-.93-1.24-.465-1.71-.155a3.468,3.468,0,0,1-2.17-.465c.47-.31,0-.929,1.24-.774-1.24-1.084.16-.465.47-.465-.93-.774-.31-1.239.62-.774,1.24.155-.78-.929.15-1.394a8.227,8.227,0,0,0,1.86-1.394,3.529,3.529,0,0,1,1.86-1.394c1.24-.464,2.64-.619,3.72-1.548.62-.155,1.55-.62,1.71-1.394.62-.62,1.55-.465,2.32-.93a5.18,5.18,0,0,0,1.71-1.393c1.08-.31.31-1.085.77-1.859.31-.619,1.09-.464,1.71-1.084,1.39-.465.31-2.323,1.39-3.1.31-.93,1.55-.31,1.55.309,1.09,0,.62,1.549,1.4,1.859.77-.465,1.55-1.394,2.63-.775.62.62-.31,1.394.47,2.014.31.774-.93,1.084-1.09,1.858a15.151,15.151,0,0,1-3.56,2.633c-.47.465-1.86.774-.62,1.394.77,0,1.86.774.46.774-.77,0-1.39-.619-2.17,0C1139.03,421.749,1138.56,421.9,1138.56,421.9Z" fill="#7699e3"/>
        </g>
      </g>
    </g>
  </g>
</svg>
