<svg xmlns="http://www.w3.org/2000/svg" width="88.938" height="53.005" viewBox="0 0 88.938 53.005">
  <g id="Page-1" transform="translate(-0.758 -0.095)">
    <g id="map" transform="translate(-339 -344)">
      <g id="normal" transform="translate(77 144)">
        <g id="map-2" data-name="map">
          <path id="Central-America" d="M298.691,201.83a8.467,8.467,0,0,0-2.79-.155c-1.395.155-2.015,1.859-3.41,1.549-1.085-.31-.93.929-1.7,1.239-.465,0-2.324.62-1.239-.31,1.239-.309.155-1.239.929-1.858a13.713,13.713,0,0,1,4.96-1.859c1.395,0,2.635-.464,3.875-.309,1.085-.155,2.169.309,3.254.309.775.465,1.7.31,2.48.62,1.085.464,1.7,1.7,2.945,1.7a9.92,9.92,0,0,1,5.114,2.014c.31.774,1.085.929,1.86,1.084a17.611,17.611,0,0,0,3.875.929c1.085.31-.775,1.549.62,1.394.93.155,2.015-.31,2.79.465.465.464,1.7.619,1.7,1.084a10.049,10.049,0,0,0-3.1.619c-1.55.62-3.255-.619-4.8,0a13.3,13.3,0,0,1-3.565.31c.465-.774,1.55-1.084,1.86-2.013-1.085-1.394-2.944-.31-4.184-1.239-.62-.465-.31-1.549-.93-2.014-.93-.619-2.17,0-3.255-.309-1.705-.31-3.1-1.7-4.959-1.549a7.3,7.3,0,0,1-3.72-.775C297.761,202.6,299.621,202.45,298.691,201.83ZM311.4,216.853c-.465-.465-2.17-.62-.775-1.084,1.24-.465,2.789,0,4.029.464.62.31,1.86.465,2.015,1.239-.465.775-1.4-.309-2.015-.155-.62-.154-.62.465-1.24.465A3.076,3.076,0,0,1,311.4,216.853Zm31.307-2.014c.465.465-.465,1.7-1.395,1.549-.465-.619-.93-1.239-1.86-.929-.775,0-1.7-.465-2.48.31-.465.774-1.395.619-1.7-.31a1.813,1.813,0,0,0-1.7,1.239c-.31.465-.775,1.858-1.395.929a1.172,1.172,0,0,0-.31-.619c-.155-.155-.155-.155-.155-.31.155.465-.62-.774-1.24-.62a6.942,6.942,0,0,1-3.565,0,1.92,1.92,0,0,0-2.17.62c-.62-.465-1.549-.62-1.859-1.394.155-.929,1.394-.465,2.014-.465,1.55.155,3.41.93,4.96,0-.155-.464-1.55-.774-1.395-1.548a.941.941,0,0,0-.775-1.549c-.465-.155-2.015-.155-1.55-.929,1.705-.775,3.565.31,5.27.464,0,.155.465-.464,1.085-.464.775.619,1.55-.31,2.169,0,.465.619,1.395.619,2.17.774.93-.464.93.775,1.705,1.084C339.917,213.446,341.622,213.6,342.707,214.839Zm5.114,2.478c-1.085.155-.775-.774-.93-1.548,0-.93,1.24-.155,1.86-.465.93.155,2.17-.155,2.945.62a1.445,1.445,0,0,1-2.015.929A8.224,8.224,0,0,0,347.821,217.317ZM312.949,248.6a2.375,2.375,0,0,1,.775,2.013c-.465,0-.93,1.7-1.395,1.084-.309-.774-.309.774-.774,1.084-.155,1.084-.465-.929-.93-1.239-.31-.619-.93-1.7,0-1.858,1.395.155,1.085.309.465-.62,0-.929-1.24.929-1.55-.464,0-.93-.62-.93-1.085-.93-.465-.929-1.7-.774-2.48-.309-1.085,0-.155,1.239-1.24,1.393-.62.465-1.86.31-1.7,1.239.31.775,1.395,1.085,1.395,2.014-.775,0-1.24.774-2.015.774-1.239.155-.775-.774-1.239-1.394-.465-1.394-.62-.155-1.085,0-.93,0-1.085-1.084-1.395-1.548a6.5,6.5,0,0,1-2.325-.62c-.775-.465-1.7.774-1.7.62a2.043,2.043,0,0,0-.465-.775c.31-.774-.775-1.549-1.085-1.084.93.929,0,1.084-.775.465-.465-.62.775-1.394,0-2.014-.62-.464-1.55-.619-2.015-1.084-.774,0-1.549-.619-1.394-1.394-.465-.619-1.24-.774-1.86-1.239-.31.155.465,1.239,1.085,1.239-.155.775-.93,1.239-1.4.31-.93-.31-1.86-.619-1.86-1.7-.155-.62,1.395-1.239.31-1.7-.62-.155.31-.62-.155-.774a.569.569,0,0,1,.465-.155.855.855,0,0,0-.775.309c-.775-1.548-2.325-2.477-3.255-3.716A10.157,10.157,0,0,0,278.7,234.2c-.31-.464.154-.464.774-.464-.155-.929-1.084-1.239-1.239-1.859a1.167,1.167,0,0,0,.155-.619c0,.31-.155.619-.155.929-.31.465-.62,1.549-1.55,1.084a36.823,36.823,0,0,1-5.89-1.7c-.465-.155-.465-.465-.155-.775a.679.679,0,0,0-.155.465,3.948,3.948,0,0,0-2.635-.62c-1.7.155-2.789-1.084-4.029-2.013-.155-.619-.9-1.549-.9-2.013-.62-.62.714-1.239.869-1.859a3.007,3.007,0,0,1,2.664-1.981c1.084,0,1.117.9,2.047.9.775-1.084-1.152-1.477-1.617-2.1-.155-1.084-.895-.538-1.36-1.312-.93-.62-.31-1.237.93-1.237.775,0,.775-1.084,1.549-1.084,2.015,0,2.983-.31,5-.31,0-.155,1.357-.774,1.357-.929.775-.155,1.395-1.084,2.325-.929-.93,1.239,1.085-.465.62.929,0,.774-.93,1.7-.31,2.323-.465.774,0,1.394-.155,2.168-.31.775-.465,2.168-1.55,2.014-.155.464-.465,1.084-.93,1.239.62.154,1.085.619,1.395.464-.465-1.239,1.085-.155,1.085.155l.155-.155c.93-.155,1.859-.774,2.789-.464a11.918,11.918,0,0,0,4.03.154c.62-.309,1.24-.774,2.015-.154,1.55,0,3.255-.62,4.8.309a1.06,1.06,0,0,0,1.085,1.549c.62,0,1.86.465,1.24,1.084-.155,0,0,0,.31-.155.93,1.394.155,3.253-.775,4.337-.155,1.239.155,2.478-.31,3.717a10.855,10.855,0,0,0-.465,4.491c.155.464.465,1.084.155,1.394l.31-.31a10.814,10.814,0,0,1,2.015,2.478c.775.31,1.085,1.084,1.7,1.549.31.309.155.309-.155.309a.152.152,0,0,0,.155.155c.155.155.155-.155.155-.155a1.563,1.563,0,0,1,1.085,1.7c.62.465,1.55,0,2.015.155a2.1,2.1,0,0,0,2.634.155c.775-.31,1.395-.929,2.325-.929.775-.465,1.4-1.239,2.17-1.394.775.155,1.55.309,2.17.464A4.7,4.7,0,0,1,312.949,248.6Z" fill="#7699e3"/>
        </g>
      </g>
    </g>
  </g>
</svg>
