<svg xmlns="http://www.w3.org/2000/svg" width="710.445" height="151" viewBox="0 0 710.445 151">
  <g id="Page-1" transform="translate(-0.014 -0.254)">
    <g id="map" transform="translate(-566 -154)">
      <g id="normal" transform="translate(77 144)">
        <g id="map-2" data-name="map">
          <path id="Europe" d="M603.17,88.092a1.3,1.3,0,0,0,1.463.527c1.085-.31.465,1.394-.31,1.239-.31-.155-1.7-.619-1.239.31a2.1,2.1,0,0,1-1.7,1.084c.155.31-.93.619-.775,1.394.155.31-.62.619,0,.774a1.862,1.862,0,0,1,.93.465c1.24.155-.155,1.394.775,1.084.62.31,1.239.155,1.859.465.62.155,2.17-.619,1.55.465-.93.155-1.24.929,0,.619.62-.155,1.395.465,1.86-.465a10.142,10.142,0,0,0,3.565-.929,2.131,2.131,0,0,1,1.86.619c.62.774,1.705-.31,1.859.619-.154,1.084.93.929,1.4,1.084a2.136,2.136,0,0,1,.465.619c0-.465-.155-.774.62-.31.62-.155-.62-1.394.465-1.239a38.988,38.988,0,0,1,4.185-.619c1.24-.31,2.015-1.084,3.255-1.239a13.247,13.247,0,0,1,4.959-.619c.93.31,1.705.619.31.155-.775-.31.155,1.239.62,1.239a4.6,4.6,0,0,0,2.48-.31c-.465.155-.93.465-.465.619.93-.155,1.705-.619,2.48-.774h-.155c1.085-.465,1.394-.619.155-.465-.62.31-.775-.465,0-.929a16.2,16.2,0,0,0,3.874,0c.31-.619-.155-.929.465-1.239-.31,0-.465,0-.155-.31a3.5,3.5,0,0,1-.775-2.323.152.152,0,0,1,.155-.155c-.62-.155-.31-1.084-.31-1.7.155-.929,1.55-.619,1.24-1.7,0-.619.93-1.239,1.4-1.394.93,0,1.7-.465,2.635-.465.155.774,1.24.774,1.7,1.239.31,1.394,1.86,1.394,2.944,1.084.775-.155,1.55-.619,1.24-1.394-.155-.619-.465-1.394.155-1.7.31-.62.465-1.859-.465-1.239-.465.619-1.549,0-1.859-.31.31-1.394-.31-.619-.93-1.394,0-.465-.155-.929.31-1.239a7.554,7.554,0,0,0,2.169-.465,3.637,3.637,0,0,1,1.86-.31c.31-.929,1.55.31,2.17-.31.465-.31,1.24,0,2.015-.155a30.509,30.509,0,0,1,3.72.465c1.084-.31,2.324.465,3.1-.465-.62-.31.155-.929.775-.31.465-.465.93-.465,1.86-.31a1.491,1.491,0,0,1,1.86-.619c.775.155,1.7.774,2.48.155a2.729,2.729,0,0,0-2.945-1.084,3.182,3.182,0,0,1-2.635-.774c.62-.619,0-.774.155-1.084-.31.619-1.4.465-2.015.619-.775-.155-1.4.774-2.169.155-.775.155-1.24.619-2.015.31-.155-1.239,0,.31-.93.31-.775-.155-1.24.774-1.86.31-.465-.31-1.24.465-2.015.465-.465.155-1.55,0-2.015.465-.465.155-1.395,0-2.015.155A3.9,3.9,0,0,1,646.48,77c-1.395-.155,0-1.394-1.085-1.084-.93,0-1.4.31-1.55-.31a11.424,11.424,0,0,1-2.17-.619,1.84,1.84,0,0,1-.62-2.633c.465-.774-.155-1.549-.775-2.013-.31-.465.93-1.549,0-1.859-1.24-.155-.62-1.239.155-1.394,1.085-.155.155-1.549,1.4-1.239.62.155,1.55.31,2.015-.465.31-.619.465-1.859,1.24-.929a9.25,9.25,0,0,0,2.325-1.394c1.239-.619,2.324-1.394,3.564-2.168a4.023,4.023,0,0,1,2.635-.465c.465-.929-1.085-.774-.31-1.7.31-1.084-1.24-.774-1.86-.929-.775-.155-1.4-.929-2.325-.774a13.649,13.649,0,0,1-2.634.31c-.775-.155-1.55-1.084-2.325-.465-1.085.31-1.4,1.859-2.635,1.549-.93.155-1.4.774-.465,1.239-.31.619-1.55.619-1.705,1.084.31.465,2.015.929.93,1.239s-1.4,1.858-2.635,2.013a13.4,13.4,0,0,1-2.634,1.084c-.775-.619-1.395.465-2.015.774a3.655,3.655,0,0,0-2.48,1.394c-.775.155-1.86-.31-1.24.774-.62.774-1.4.465-2.17.31.31.774.93,1.239.465,2.168,0,.774-1.7.31-.93,1.394a6.179,6.179,0,0,0,.62,2.013c-.62.465,1.24.155,1.55.619.93-.31,1.4.929,2.17,1.239a2.875,2.875,0,0,1,1.86,1.084c.775.619-.775.619-1.24,1.084-.93.31-2.015,1.084-2.945.465-1.085,0-2.17-.619-3.1-.465-.775-.31-1.55.619-.155.31a8.9,8.9,0,0,1,2.169.619,3,3,0,0,0,2.015,0c.62-.155,1.55,0,2.015-.31.775.619-1.4,0-.62.774-.93-.155-1.24,1.084-2.015.774.155-1.239-.31-.155-.775.31-.775.465-1.24.31-1.86.619-.774,0-2.169-.155-1.239.774.775,0,.929,1.549.31,1.7-1.24-.155,0,.619-.31,1.084.775.619-.93,1.239-.62,2.013,0,.929-.93,1.549-1.395,2.323-.31,1.239-1.085.31-1.86.465a6.675,6.675,0,0,1-2.48,0c-.155.62-1.55.155-1.705,1.239.465.465.31,1.549-.775,1.084-.93-.155-1.859.465-2.944.155-1.085.155-.62-.619-.155-1.084a10.518,10.518,0,0,1-1.86-1.859c1.085-.31.775-.619,1.55-.929a13.393,13.393,0,0,0-1.55-1.084c-.93-.155-.775-1.7-1.7-1.549.465-.929-.93-1.239-.775-1.858.62-.774.465-1.549-.62-1.084-.31-.465-1.085-.465-.93-1.549-.465-.619-.465-1.858.465-1.084-.155-.155-.31-.31-.465-.31-.31-.774-1.55.31-1.86-.774.155-.774-.465-1.394-.775-.31.155.619-.775,1.239-1.24,1.394a2.723,2.723,0,0,0-2.169.31c0,.619-1.24.929-1.705,1.239-.775.465-1.55.774-2.17,1.239-.465.465-1.4.155-2.015.31-.62-.155-1.7.62-2.17-.155-.775-.155-1.7.31-.93-.31-1.084-.155-2.014-.929-3.254-.929-.93-.465-.31-1.239-.31-1.7.465.619.93.155,1.86.619-1.24-.619,1.394-.774-.155-.619-.93.31-1.24-.774-.155-.774,1.7-.619-1.085,0-.155-.619,1.085-1.084-.775.774-.62-.155-.465-.465-.155,1.084-1.24.619-.155-.619-.775.465-1.085-.774.775-1.084,1.24,0,1.24-.465.93.155.62-.31,1.55-.31,1.24-.465.62-.31-.31-.155-1.395,0-.62-.465,0-.929.465-.774-1.24-.31-1.7-.31-1.24-.31-.155-.774.465-1.084.62-.774-1.085-.155-1.395-.619-.775-.619.93-1.239.93-1.394-1.085-.155-1.085-.929-.775-1.549-.465-1.084.93-.774,1.55-.929,1.4.155.155-.465-.465-.619-.31-.774,1.24-.31,1.55-.929.465-.465,1.86.465,2.015-.619.154-.929,1.394-.155,2.014-.155,1.085,0,1.55-.619.155-.619-1.085-.155-.62-1.084.31-.774.93.155,2.015-.465,2.945.155-.155-.929.93-.929,1.24-1.549.775-.465,1.55.155,2.17,0,.31-.774,1.55-.619,1.86-1.394.31-1.239,1.859-1.394,2.789-2.013.62-.619,1.4-.31,2.17-.155.93-.31,0-1.084,1.24-1.239.62-.155.93-1.239,1.7-1.084,1.085.465,1.55-.929.465-1.084-.155-.31.93-.929,1.24-1.549,1.085.465,1.24-.31,1.705-.774,1.084.155,1.239-.465.155-.774-.775-.31.465-1.394,1.084-.929,1.085.155,1.7,0,.62-.774a15.911,15.911,0,0,0,2.17-.619c.93-.155,1.4-.31.465-.774.775-.155,1.55-.929,2.48-.465.31,0,1.86-.31,1.24-.774-.93-.31.775-.929,1.085-1.084.62.465,1.395.774,2.015,0-.62-.929-.31-1.084.775-.929,1.859,0-.465-.619.309-.929s1.55-.31,1.86-1.084c.465-.465,1.24-.155,1.86-.465.31-.929.93-.929,1.705-.619a3.043,3.043,0,0,1,2.325.155c1.085.31,1.86-.929,2.48-1.549.929-.929.929.31.464.929,0,.465,1.4-.465,1.55-1.084.62-.465,1.55,0,2.17-.774.62-.465,1.395.619,2.015.465.62-.619,1.085-1.549,2.015-1.239.93-.155,1.55.774,2.325.774.775-.774,1.394-1.858,2.634-1.7.775.31,1.24-.774,2.015-.929a10.669,10.669,0,0,1,3.875-.465c-.775.62-1.86.774-2.325,1.7-.465,1.084.775,1.084,1.24.31A14.275,14.275,0,0,1,658.1,40.3c.155.62-.465,2.168.62,1.549,1.084,0,1.7-1.239,2.479-1.7.775,0,1.705-.31,2.48.155-.93.465-.93,1.084-1.395,1.7.31.31,1.55.465,1.7-.465.62-.465,1.24-1.239,2.17-.774a11.124,11.124,0,0,0,4.494.929c1.085.155,1.55,1.084.31,1.084-1.859.619-3.874.31-5.734.31-.465,0,1.085.774,1.55.774.93,0,1.395.929,2.17.62a6.16,6.16,0,0,1,3.719.31l-.155.155a1.308,1.308,0,0,1,1.085-.31c.93-.31,1.705-.465,2.48-.774.31,1.394,1.86,1.7,3.1,1.7,1.24-.465.62,1.549,1.55.774.775-.31,1.859.155,2.789,0,1.86.155,3.72-.155,5.425.465,2.48.465,4.959.619,6.974,2.013,2.17,1.549,4.96,1.084,7.44,2.013.619.31,1.7.31,2.014,1.084-.465.929.775,1.084.93,1.858a8.153,8.153,0,0,1-4.029,2.323,19.871,19.871,0,0,1-8.525.465,34.694,34.694,0,0,1-7.9-1.084,28.813,28.813,0,0,0-5.269-.929,3.888,3.888,0,0,0-3.875-.929,19.369,19.369,0,0,0,1.86,1.239c1.395.465,2.79,1.549,4.339,1.7.93.155,2.17.619,2.015,1.7-.155.774-1.86.31-1.085,1.239.155,1.084,1.4,1.549,1.4,2.633.775.929,2.17.465,3.255.774.93-.31,1.085,1.084,2.015,1.084a23.508,23.508,0,0,1,3.254.465c.775-.465,2.015,0,2.17-.929,0-.929-1.24-1.239-2.015-.929-1.239.155-2.169-.774-2.944-1.549.62-.619,1.085-1.394,2.015-.929a33.8,33.8,0,0,0,6.819,1.7,7.567,7.567,0,0,0,2.635-.155c.775.465,1.859-.155,1.24-.929-.775-.619-1.7-1.084-2.015-2.013.62-.929,1.86-.774,2.789-1.239a9.393,9.393,0,0,0,4.5-1.7c.775-.619,1.86,0,2.79,0,1.24,0,2.48.929,3.719.929.155-.929.775-1.394,1.085-2.168A1.235,1.235,0,0,0,715.294,53c-1.4,0-.775-.774,0-1.239s1.084-1.084.619-1.858c-.465-.155-1.7-1.084-.619-1.239a17.566,17.566,0,0,0,4.029.155c1.085,0,2.325-.155,2.945.774a20.248,20.248,0,0,1,1.86,1.7c-1.86.155-3.72-.155-5.27.619-1.24.619,0,1.084.775,1.239.93.31,1.4,1.084,2.325,1.084,1.705.465,3.565-.155,5.269-.155,1.085-.465.93-1.858,1.86-2.478,1.86-.155,3.565-.929,5.425-1.239,2.635-.774,5.579-.929,8.214-1.858.155.929,1.24.774,1.86.465.775-.155.62-1.394,1.705-1.239.62-.155,2.17-.465,1.86.31,0,.929-.31,1.394-1.4,1.239-.93.619.775.929,1.24.774.775,0,1.859-.465,2.634-.155.62.619,1.4-.31,1.705-.929a10.677,10.677,0,0,1,4.96-.465,4.636,4.636,0,0,0,4.029-.31,5.593,5.593,0,0,1,4.96-.155c-.93.31-1.085,1.239.155,1.239.775.155,2.015.155,1.86-.929.93-.31,2.325.31,3.1-.62.93-.774-.464-1.239-.929-1.7-1.4-.619-.31-.774.465-1.239,1.239-.465,2.634,0,3.874-.155,1.86.155,3.875.465,5.735.774s3.719,1.084,5.579,1.084a43.37,43.37,0,0,1,6.355,2.013,16.951,16.951,0,0,0,3.564,1.394,15.429,15.429,0,0,0,2.325-2.168c-1.24,0-2.79.155-3.41-1.084.465-.929-.465-1.239-1.24-1.394a15.375,15.375,0,0,1-2.789-.31c-.465-.774.775-1.239,1.4-1.394.775-.31.465-1.239.31-1.858-.62-.619-1.86.155-2.325-.774a1.813,1.813,0,0,1,1.705-1.239c2.014-.465,4.029-.929,5.269-2.633.62-.774.62-2.168,1.705-2.478a13.35,13.35,0,0,1,2.48.155c2.17.155,4.494-.465,6.664-.155.93,0,2.17-.31,2.635.619a3.666,3.666,0,0,1-2.17,2.788c-.62.31-2.015,1.084-.775,1.394.93.465,2.325,1.239,2.48,2.478.62.929-1.24.929-.93,1.7a8.511,8.511,0,0,1,.31,3.407c.31,1.239,1.4,1.549,2.48,1.7,1.085.619-.62,1.084-.62,1.858-.62,1.549-2.48,2.013-3.875,2.788-.62.155-2.325.31-1.55,1.084.465.62-1.24.465-1.7.774-1.4,0-2.79-.774-4.185-.619-.465.155-2.325-.155-1.86.619,1.55,1.084,3.41,1.084,5.115,1.239a14.978,14.978,0,0,1,3.719.155c.775,0,1.705.155,2.17-.619.62-.929,1.86-.465,2.79-1.084a2.566,2.566,0,0,0,2.015-1.549c.465-.619,1.55-.619,2.015-1.239a1.124,1.124,0,0,0,.464-1.859c-.774-.31-1.239-1.239-.31-1.7a16.013,16.013,0,0,1,6.045-.465,3.642,3.642,0,0,1,2.17,1.084,3.493,3.493,0,0,1-.31,2.478c.93.929,2.48.619,3.719.774.775,0,2.325-.619.93-.929-.93-.465-1.859-.155-2.789-.465-.155-.929,1.394-.62,1.7-1.239a12.787,12.787,0,0,0-1.084-2.013c-.93-.774-2.325-.465-3.41-.929-1.55-.155-3.255-.619-4.8-.155-1.395.31-2.789-.31-4.184-.155,0-.929-1.4-1.7-.62-2.633.31-.929,1.395-1.239,1.7-2.168a10.607,10.607,0,0,0-3.255-2.633c-.31-.465.93-1.084,1.55-1.084a7.279,7.279,0,0,0,4.029-1.239c.62-.465.155-1.7.31-2.013.62.31,1.86-.155,2.015.619.155.929-.775,1.549-1.24,2.168a1.269,1.269,0,0,0,.775,1.858c.93.619,2.325.31,3.41.619,1.24.31,2.79.155,4.03.465a3.167,3.167,0,0,0,2.634.465c-.31-.774-.93-1.859-2.015-1.7-1.549-.155-3.254.155-4.649-.465-1.085-.31-.62-1.239.465-1.084a6.028,6.028,0,0,1,2.325.31,4.426,4.426,0,0,0,2.479-.155c-.465-.929.155-1.239,1.085-1.239a12.76,12.76,0,0,1,6.355.929,11.575,11.575,0,0,0,6.354,1.394c.62.31,1.7-.774,1.86.31-.62.31-1.4.619-2.17.929a8.134,8.134,0,0,0-.62,2.633c.775.619,1.085-.774,1.7-1.084.62-.619,1.4.31,1.705.774-.465,1.239.465.929,1.24.619,1.085-.155.465-.929.155-1.549-.31-.465-1.55-1.084-.62-1.7s.93-1.239-.155-1.549c-.93-.465-2.015-.465-2.79-.929-.31-.929-1.4-.465-2.015-.774-.93-.31-2.169-.155-2.944-.619-.62-.465.155-1.7-.775-2.013-1.085-.31-.93-1.394.155-1.394,4.184-.31,8.524,0,12.709-.619a2.1,2.1,0,0,0,2.324.155,10.422,10.422,0,0,1,4.34-.465c1.085.31-.93.31-1.24.929-.93.619,1.085,0,1.55,0,1.085-.155,2.48-.31,3.255-1.239-.62-1.239-2.17-.774-2.945-1.7,0-.929.775-1.394,1.55-1.549,2.17-.62,4.494-1.239,6.664-1.859,3.565-.465,7.284-.465,10.849-.929a28.861,28.861,0,0,0,6.355-1.239c1.549-.465,3.1,0,4.649-.155,1.55-.31-.155,1.084.93.929,2.48.31,4.96-.31,7.439-.62,1.55-.31,3.1.774,4.495,0a1.135,1.135,0,0,1,1.24-1.239c1.24-.155,2.48.155,3.565-.465,1.4-.155-.93-.619-.155-1.394a29.022,29.022,0,0,1,8.059-1.859c1.705-.155,3.255,0,4.959,0,.775,0,2.015.774.62.929a7.637,7.637,0,0,0-2.634.929c1.549.465,3.1-.155,4.649.155,1.395.155,2.945-.155,4.34,0,.155.62-1.24.774-1.705,1.084-1.24.465-.465.774.465.619a22.844,22.844,0,0,1,3.255,0,3.647,3.647,0,0,1,2.479-.774,24.9,24.9,0,0,1,4.8,0,20,20,0,0,1,7.439.774,5.106,5.106,0,0,1,2.015,1.084c.775.155,1.705-.155,2.325,0,1.085.774-.155,1.084-.775,1.549-1.395.465.155.774.775,1.084.31.31-1.4.619-1.86.929a13.582,13.582,0,0,1-4.959,1.084c-3.565,1.084-7.285,2.323-10.849,3.407a33.534,33.534,0,0,0-6.82,1.549c-.93.465-1.86,1.084-2.79,1.549A6.366,6.366,0,0,0,922.2,34.1c2.48-.31,4.8-.155,7.129-.62,2.015-.465,4.185-.465,6.045-1.084,0-.929-1.705-.774-.31-1.394a2.7,2.7,0,0,1,2.79.62c1.085,0,2.169.619,3.409.465,1.085.155,2.325-.774,3.255-.155.31.619.155,1.7,1.085,1.7,1.085-.465,1.86-1.239,3.1-1.084,2.169,0,4.184-.31,6.354-.155,2.325,0,4.495.31,6.819.31-.464.774-.464,1.858.62,1.7,2.945,0,5.735.774,8.68.465a11.464,11.464,0,0,1,5.114.31c.775.155,1.24-.774,2.015-1.084s-.62-1.549.775-1.394a6.507,6.507,0,0,1,4.185-.31c1.394.155,2.789.929,4.184.774,2.17.155,4.495-.465,6.665.465.62,0,1.859,1.084.62,1.084a29.621,29.621,0,0,0-7.285,1.858c-.465.62,1.4.31,1.86.465,2.015-.155,3.72,1.084,5.58,1.549a46.794,46.794,0,0,0,5.421,2.943,5.405,5.405,0,0,0,3.41.619c1.71-.619,2.79-2.478,4.34-3.407.93-.774,1.09.774,1.86.774a11.72,11.72,0,0,0,6.51.465,11.357,11.357,0,0,1,5.58-.155c1.09.31,2.17,1.084,3.41,1.239.47,0,1.71-.465,1.4-.929.15-.774,1.39-.929,2.01-.774a6.137,6.137,0,0,0,3.41.619c.62-.619-.15-1.394.31-2.168.31-1.084-1.24-.155-1.86-.31-1.39.155-.77-.62.16-.774,1.86-.31,3.87,0,5.57-.929,1.24-.774,2.64,0,3.88,0,3.1.31,6.04.619,9.14.774.62,0,2.33,0,2.02.155a13.707,13.707,0,0,0-2.33.774,18.756,18.756,0,0,0,2.95,0c.93.31-.78.929-1.24.929-.62.155-2.33.774-1.4.929a21.206,21.206,0,0,0,3.1-.465c1.24-.31,2.48-1.239,3.72-1.549a32.115,32.115,0,0,1,7.75.465c.78,0,1.71.774.31.774-.77.155-1.7.465-2.48.619,2.48.619,4.96.619,7.29,1.084a4.012,4.012,0,0,1,2.63,1.394c1.4,1.084,3.1.619,4.65.619,3.88-.465,7.75-1.239,11.78-.929,2.63.155,5.27,0,7.59,1.084a3.042,3.042,0,0,1,2.33,1.394c-.16.774-1.09,1.549.15,1.7s2.33.155,3.41.31c-.31.774.16,2.013,1.09,1.549.77-.155,1.24-1.084,2.17-1.084,1.39-.619,2.94-.155,4.34-.31,1.24,0,2.63-.774,3.72-.155,1.24.929,2.94.465,4.34.619,1.86,0,3.87.31,5.58-.619.77-.619,1.7.465,2.48.774,1.24.774,2.79.619,3.87,1.549.78.929,2.17.465,3.1.465a20.02,20.02,0,0,0,2.95-.619c.31-.774-.93-1.239-1.24-1.859-.47-.619-2.02-.155-.78-.929.47-.929,1.09-.929,2.02-.774,2.32.155,4.49.31,6.82.619.31.929,1.39.155,2.17.31,3.09-.155,6.19-.465,9.14.155,2.17.619,4.34.31,6.51,1.084,1.55.465,3.1.31,4.49,1.084.31,0,.31,0,.47.155a31.421,31.421,0,0,1,7.28,1.7,60.261,60.261,0,0,1,7.6,1.859,3.114,3.114,0,0,1,1.86,1.239c.46.465,1.24,1.394.62,2.013a5,5,0,0,0,2.79,1.549c.46-.155.77-.929-.31-1.239-.31-.465-.16-1.549.77-1.394,1.24-.31,2.33.465,3.57.465,1.39.155,2.79-.31,4.03.31a20.736,20.736,0,0,0,5.2,1.843,1.084,1.084,0,0,1,.69.015v.465a2.749,2.749,0,0,1-.96-.247,7.309,7.309,0,0,0-.59.557c-.62.62-1.55-.31-2.33-.31-.62,0,.93.619,1.24.929a25.055,25.055,0,0,0-3.41-.155,9.056,9.056,0,0,0-2.79-.619c.62.774,1.86.619,2.02,1.7.31,1.084-.93.929-1.55.929-.93-.155-1.4.465-.62,1.239.77.929-.78.62-1.4.62a4.612,4.612,0,0,1-2.48-.31c-.62-.774-1.86-.774-2.63-1.084-.62.155-1.24.465-2.02-.155-.62-.155-1.55-.774-1.08-1.394-.78-1.084-2.33-1.239-3.57-1.084a11.447,11.447,0,0,1-5.11.31c.31-.929-.62-1.549-1.24-1.7a2.106,2.106,0,0,0-2.02,1.084,7.1,7.1,0,0,0-1.08,2.478,5.247,5.247,0,0,1-1.24.465,7.358,7.358,0,0,1-2.48.619c-1.09.774-2.33.62-3.57.62-.62-.31-1.86.31-1.86-.62-.93-.465-.93-.465-1.24-.465a3.275,3.275,0,0,1-2.94,0c-1.24-.31.93.929-.62,1.084a2.8,2.8,0,0,0,2.01.465c.47-.465,1.86-.62,1.86.155s1.09.929,1.71.929c1.08-.31,1.39-.31.77.155.93-.774,1.09,0,1.55.774.93.62-1.55,1.394-.46,1.239,1.08-.31,1.39,1.239,2.48,1.239.15.929-.16,1.239,1.08.929a1.386,1.386,0,0,1-1.24,1.549c-1.24.465-2.48-.31-3.72-.31a9.191,9.191,0,0,1-2.17-.31c.47-.774-1.39-.619-1.55,0-.62.929-2.01.774-2.94,1.239a20.358,20.358,0,0,1-4.19.929,3.6,3.6,0,0,1-2.78.929c-1.24-.155-1.71,1.239-2.95,1.084-1.08-.155-1.86.774-2.48,1.394-.77.465-1.86.31-2.63.929-.62,1.084-2.17.465-2.95,1.239A1.184,1.184,0,0,1,1133.45,77c-.93-.155-1.24-1.084-1.71-1.549-1.24-.619-2.79-.31-4.18-.31-1.71.31-3.57.31-5.12,1.394-.62.31-1.39,1.239-2.01.929-.16-.465,1.08-1.7.46-1.859-.77.155-1.55,0-2.17.619-.77.465-2.01.155-2.01,1.239-.62.465-1.71.465-1.86-.465-.47-.929-1.24-.31-1.86.155-.47.465.15-.31-1.09.155-.46.31-1.55.929-1.08,1.549,1.24.31-.62.619-.93,1.084.15.465,0,.619-.93,1.084a5.3,5.3,0,0,0-2.48,2.013c-.16,1.239,1.24,1.394,2.17,1.239.77,0,1.86-.155,2.32.465-.46.774-1.55.929-2.01,1.7.31.619.46,1.7,1.39,1.549s.93,1.394.47,1.858c-.31.62-2.02.465-1.71-.31,1.09-.774-.15-.774-.77-.31-.93.774-2.33,1.7-2.64,3.1.16.774.93,1.239,1.55,1.549.47.619-.77,1.084-1.39,1.239-1.4.155-2.95-.465-4.19.465-.77.465-1.7.929-2.01,1.859,0,.619,1.55,1.084.62,1.549s-1.86.155-2.79.619c-.62.31-2.02.31-1.71,1.239a2.955,2.955,0,0,1-1.39,2.787,23.833,23.833,0,0,1-4.18,2.633c-.62.155-.78-1.239-.93-1.858a6.317,6.317,0,0,1-.62-2.478c-.16-.929-1.09-1.549-1.09-2.633-.31-1.239-1.08-2.168-.93-3.407a18.1,18.1,0,0,0-.77-2.788,14.165,14.165,0,0,1,.62-4.491c.77-.929,2.17-1.549,3.1-2.323.46-.465,1.39-1.239.62-1.858a22.741,22.741,0,0,0,7.28-2.633,4.289,4.289,0,0,0,2.32-2.013c2.33-1.239,4.81-2.168,6.82-3.717.31-1.084,1.55-1.084,2.33-1.394a18.268,18.268,0,0,0,3.1-.774c.15-.929,1.39-.929,1.55-1.7-1.4-.155-.31-.929.15-1.549.16-.619,0-1.7,1.09-1.7,1.08-.155,2.32-.155,3.41-.31-.93-.774-2.33-.465-3.57-.774a16.9,16.9,0,0,0-4.03.619c.47.774-1.08,1.239-.77,2.013-.16.774-1.55.31-2.02.774-1.86.774-3.56,1.858-5.42,2.633-.62.155-2.17.929-1.55-.155,1.08-.929-.31-.619-.93-.929-.47-.774.62-1.239.93-1.858.46-.929-1.09-.465-1.55-.155a1.653,1.653,0,0,1-2.02-.31c-1.24-.31-2.63.155-4.03.155a9.034,9.034,0,0,0-4.49.929c0,.929-.31,1.084-1.24,1.394-.93.155-1.55.774-1.24,1.394-2.01.619-4.49,1.239-5.73,3.252-.31.929,1.08.929,1.7.929.62-.465,2.17.619.93.619-1.39,0-2.63.774-4.03.465-1.08-.155-2.17-.31-2.94.31-.78.774-1.4-.619-2.17,0-.93.31-2.17.774-3.26.155.16-.929,1.4-.465,2.02-.774,1.39.155,0-.774-.47-1.084a9.519,9.519,0,0,0-4.18,0c-.93-.155-1.71-.929-2.64-.774a6.2,6.2,0,0,0-2.32.465c.31.774-.93,1.394-1.55,1.084-1.86-.774-3.72.155-5.58-.31-.62-.155-1.86-.465-2.02.465,0,.774-1.86.619-1.55-.31-.31-.774-1.39-.155-2.17-.31a47.77,47.77,0,0,0-6.66,0,8.451,8.451,0,0,0-4.96,2.478c-1.24.465-2.79.619-3.57,1.858a4.748,4.748,0,0,1-2.32,1.549c-2.79.929-4.96,2.788-7.28,4.491-2.48,1.859-5.43,2.633-8.06,4.182-.78.619,0,1.549.77,1.394,1.4.155,2.79-.31,4.19-.155a6.417,6.417,0,0,0-.47,2.478,2.173,2.173,0,0,0,2.33-.465c1.08,0,1.39.465.31.929-.31.774,1.39.31,1.86.465,1.08.155,2.32-.31,2.48-1.394-.31-1.084,1.08-.465,1.7-.619,1.71,0,3.72.31,4.65,1.858.77.619,1.7.929,2.63,1.549-.93.619-.93.619-.15,1.394-.47,1.084-.47,1.239.46,1.7-.31,1.238-1.7,2.013-2.17,3.252-.62.929-1.23,2.013-.62,3.1.31.929-.31,2.014-.31,2.943a20.778,20.778,0,0,1-.92,2.942c-1.09.93-2.64,1.7-3.41,2.943-.16,1.084-1.4,1.394-2.17,2.168-.93,1.084-1.4,2.478-2.48,3.252a37.263,37.263,0,0,0-4.65,4.027c-.47,1.549-2.48,1.549-3.26,2.943a8.228,8.228,0,0,1-5.58,3.407c-.77,0-1.7.774-2.17.31-.46-.93-1.86,0-2.17-1.084-.46-.93-1.24.309-2.01.154.93-.929.31-1.084-.47-.464a31.782,31.782,0,0,1-3.72,2.633.547.547,0,0,1-.15-.31,5.552,5.552,0,0,1-.31-.929l.15-.155a2.9,2.9,0,0,0,1.09-.31h.15a.562.562,0,0,1,.31-.155c.16,0,.16-.155.31-.155a2.73,2.73,0,0,0,.78-.619c.31-.62,0-1.084.15-1.859v-.155c.16-1.084-.46-2.013-.62-2.942v-.31a.536.536,0,0,1,.16-.31c.31-.464,1.08-.619,1.39-.929a1.88,1.88,0,0,1,2.17-.31c.93.155,2.02,1.085,2.79.155a14.076,14.076,0,0,0,3.1-4.8c.16-.619.47-1.239.62-1.858.16-1.084,1.4-1.239,2.17-1.859,0-.619,0-1.7-.62-1.858a20.9,20.9,0,0,0-6.2,1.084c-1.39.619-3.1.465-4.65.619-.93.31-1.39-.154-1.7-1.084s-.31-2.478-1.24-2.942c-1.71-1.239-3.877-1.394-6.047-1.549-1.239-.465-3.1-.465-3.719-1.858-.93-2.323-2.48-4.337-3.41-6.66a6.082,6.082,0,0,0-2.17-3.252c-.31-.155-.465-.31-.775-.465-1.395-.155-2.944.465-4.339-.31-1.705-.929-3.72-.774-5.58-.619-2.015.465-4.029.155-6.044.929l-.155.155c-.31.155-.465.31-.775.465a2.778,2.778,0,0,0-1.085.774.152.152,0,0,0-.155.155c-.155.155-.31.155-.31.31.62,0,1.24-.31,1.86-.155a.805.805,0,0,1,.62.31c0,.154.155.154.155.309a1.5,1.5,0,0,1-.93,1.859c-2.015.619-2.945,2.478-4.185,3.872-.465.464,0,.774.31,1.084,0,.155.155.155.155.309a.569.569,0,0,1-.155.465,10.3,10.3,0,0,1-2.945,1.394c-1.239.464-1.7,1.084-3.254.619-.775-.464-1.55-.619-2.015-.929a4.6,4.6,0,0,0-2.48.155h-.31a3.026,3.026,0,0,1-1.085.155h-.155a.541.541,0,0,0-.31-.155h-.155a9.848,9.848,0,0,1-2.169-1.239c-1.085-.465-2.015-.155-3.255.31s-2.325,1.858-3.72,2.168c-1.7.465-3.255.465-4.959.774a19.968,19.968,0,0,1-7.44-.619,25.753,25.753,0,0,1-3.254-.929c-1.86-.62-2.635-1.859-4.5-2.169a26.421,26.421,0,0,0-6.045.155c-1.394.155-2.789.929-4.029.62-1.24-.465-3.1-.929-4.03-2.014-.775-.464-.31-1.548-.775-2.168-1.705-.155-3.254-1.084-4.959-1.239-1.86-.464-3.72-.464-5.58-.929l-2.325,1.858a2.14,2.14,0,0,0-.62.465,1.016,1.016,0,0,0-.155,1.7c.155.774,1.395.929.775,1.858a4.855,4.855,0,0,1-3.409,1.7,7.241,7.241,0,0,0-2.635-.465h-4.8c-1.085,0-.93-1.239-1.7-1.549-1.55-.619-4.34-.464-6.045-.774-2.015-.465-3.72.62-5.579,1.239-2.015.619-3.255,2.168-5.27,2.633-1.395.155-3.255.155-4.65,1.239-.464.31-2.324,0-2.479-.465-.775-.929-.93-1.858-2.015-.929-.775.774-2.17.31-3.1.31-.775,0-.775-.62-1.4-1.239-.465-.775-1.705-.62-2.17-1.239-.774-1.084-1.084-.929-1.859-1.549a2.623,2.623,0,0,0-2.635-.31,9.962,9.962,0,0,1-4.185.465c-.465-.31-1.4-.31-1.55-.774-.31-.775-1.549-1.239-2.014-.93-.62.31-.93,1.394-1.705,1.394s-1.24-1.7-1.86-2.168a61.85,61.85,0,0,1-4.185-4.8,13.553,13.553,0,0,0-4.959-3.407c-.465-.465.31-1.394-.62-1.7-1.085.465-3.565.774-4.65,1.549-1.085.31-2.325.465-3.1,1.394-.62.31-1.549-.465-2.324-.155-.465,0,1.24-1.7-.155-1.394-.62.619-2.17,0-2.79-.31-.775,0-.93.62-1.4-.465-.465-.619-1.705.31-2.48.155-.775,0-.31.31-1.085,0-.155-.31.155-.774.31-1.549-1.085,0-.93-1.239-1.395-1.7-.619-.465-2.324,0-3.1,0-1.4-.31-2.945-.929-4.495-.619-.155.929-1.705.31-1.86.929-.31.929-1.55.774-2.48.774-2.014-.155-4.029.774-6.044.774-.93-.155-1.4.774-2.015.929-1.55,0-3.1.155-4.8.31a10.237,10.237,0,0,0-4.185.929,27.473,27.473,0,0,1-3.565-.155,1.015,1.015,0,0,0-.155,1.7c-.62.31-.31,1.548.775,1.394.465.155,2.17-.31,1.86.465-1.085.31-2.17-.619-3.255,0-.62.31-1.549.929-.62,1.549.93.774-.774.929-1.239,1.239-.465.464-2.17.464-1.085.929.62,0,.775.774,1.4.774h.31a3.444,3.444,0,0,0,2.014.775c1.085,0,.62,1.239.31,1.858-1.085.155-2.015.775-3.1.62-.775.309-1.4-1.239-1.86,0-.62.619-1.395.309-2.17.155-.775-.31-1.86-.155-2.17-1.085-.31-.774-1.4-.464-2.015-.464-1.085-.155-.93,1.084-2.014.774-.775-.774-1.86-.619-2.945-.774-1.085.31-1.55,1.7-2.79,1.7-.62-.309-1.55-.309-2.17-.929-.31-.619-2.015-.929-1.4,0s-.93,1.084-.62,0c-.465-.619-1.394-.774-2.169-1.239-.62-.464-.775-.929-1.86-.929-.775,0-1.7.31-2.325-.155-.465-1.084-1.55-.465-2.325,0-.93.465-1.24-.31-2.17-.155-1.085-.31-1.859.465-2.634.929-.775.62-1.86.465-2.79.93a3.088,3.088,0,0,1-1.86,1.239c-1.085.155-.93.929-.465,1.7.155.929-.775,1.084-1.55,1.084-1.085-.309-1.55-2.013-2.79-1.7-.464.464-.62,1.548-1.549,1.394-.93,0-.465,1.393-.775,2.013.93.31.93,1.084,0,1.239-.31.465-1.24,1.549-.775,1.858.62.31,1.86,0,2.015,1.084-.31.62.774,1.549.929.775.775.464,1.7-.155,2.325.464s1.4.775,1.86,1.549c.31.62,1.55,1.239,1.085,1.7-.465-.155-2.015-.62-1.395.31a2.2,2.2,0,0,1,.93.309c.155.155.155.155.31.155.31.155.465.31.775.31h.31c-.155.774-1.55.619-1.55,1.239-.31.31-1.24-.155-1.7.619-.775.155-1.55.62-2.17.155a3.265,3.265,0,0,1-.775,1.7,2.81,2.81,0,0,1-1.549,1.7c-.93.62.155,1.239.775,1.394.465.62,1.239,1.084,1.239,1.859-.31,1.394,0,.155.465-.31.31.31-.93,1.394-.155,1.858-.93.93.31,1.085.465,1.859.31.619,1.085.774,1.395,1.549a1.859,1.859,0,0,1,.775.774h-.31c-.31.929-1.4.774-1.86,1.549-.465.929-1.549.155-2.324.155a2.462,2.462,0,0,0-1.395-1.394,3.806,3.806,0,0,0-2.48-.93c-.62-.154-1.7-.619-1.395-1.084.62-.929-.775-.774-1.24-.929s-1.4-.929-1.86-.155a1.268,1.268,0,0,0-1.86.155c-.464.155-1.859.155-1.239-.464-.775-.465-1.86-.31-2.48-.93-.465-.774-1.4-.155-2.015-.619-1.24,0-2.635.464-3.565-.465-1.085.31-1.7-.619-2.789-.619-.62,0-1.7-.465-1.86.464a5.161,5.161,0,0,0,.93.465.152.152,0,0,1-.155.155c-1.55-1.084-3.1-2.633-4.96-3.253a2.711,2.711,0,0,1-2.17-1.084c-.775.155-1.55.465-1.86-.619-.619-.465-1.7-1.084-.31-1.239.62,0,1.705.155,1.55-.929.62-.465.62-1.549,1.55-1.394,1.24.155.465-1.084-.31-1.239s-1.705-1.084-.31-.929c1.395,0,2.48-.93,3.875-1.239.62-.62-.775-.93-1.4-.62-.465-.155-2.015.62-1.86-.155,0,.31-.155.62-.775.465-.93.155-2.015,0-2.634.774-1.55.62-3.565.155-5.115,1.239-.775.465-1.4-.929-1.705.31-.775.929-2.17.31-3.1.465-1.4,0-1.085.464,0,.774.93.619,2.015.929,2.79,1.549-.31.929.775,1.084,1.4.774a6.891,6.891,0,0,1,3.565-.155,2.1,2.1,0,0,1-1.705,1.084c-.93.155-1.86-.464-2.635.31s-2.325,0-3.1.929c-.775,1.084-2.014.62-2.944.31.31-.774.775-1.549,0-2.168a3.628,3.628,0,0,0-2.79-.465c-.465-.619,1.085-.929,1.55-1.239s2.17-.155,1.705-.929-1.55-.31-2.325-.31c-1.24,0-2.635.155-3.255-.929,1.085-.31.775-1.239,0-1.394-.465.775-1.55.31-2.325.62a2.648,2.648,0,0,0-2.015,1.084,6.428,6.428,0,0,1-3.1,1.858c-.93.155-.465.929-.465,1.084h.155c.775.465-.155,1.394-.62,1.7a2.551,2.551,0,0,0-2.325,1.239,5.215,5.215,0,0,0-.775,2.633c0,.309-.31,1.394-1.085.929-.775.155-1.085,1.239-1.085,1.858.155.93-1.4.62-1.24,1.7.62-.155,1.24.619,1.4,1.239h-1.55a2.787,2.787,0,0,0-2.479.31.808.808,0,0,0-.62.309,2.139,2.139,0,0,0-.62.465.152.152,0,0,1-.155.155c-.31.31-.155.465.31.774-.155.62-.62,1.084-.775,1.7,0,.155-.155.155-.155.31a.152.152,0,0,0-.155.155.152.152,0,0,1-.155.154c0-.929-1.4-.464-2.015-.619-.775,0-1.24-.774-2.015-.155s-1.085-.929-1.705.155c-.62.774-1.549,0-2.014.465.155.774.929.929,1.549,1.393,1.085.93,0,.465-.465,0-.774-.464-1.7.31-.619.62,1.084.464-.31.774-.62-.155-.62-.465-1.55-.31-.62.31,1.085.309.62.464-.31.309,0-.619-.775-1.084-1.4-1.393-.465-.155.465-1.394-.62-.62-.775.155-.31.929-.62,1.549.31.619.93.929,1.085,1.7.465.31,1.86,1.239.93,1.549-.155.155-.62-1.239-1.4-.464.775.464.31,1.239-.62,1.239-.155.154,1.24.464,1.55.774a2.7,2.7,0,0,1,1.705.929c.31-.155,1.859.31,1.084.774.155.465.465,2.014-.309,1.239-.465-.464-.93-1.393-1.705-.929-1.085.155-1.24.155-.775.929,0,.775,1.24.155,1.085.93-.62.309-1.24.619-1.4-.155-.93-.31-1.4-.155-.775.774a3.935,3.935,0,0,1,.775,2.014c-.31.154-1.55-.93-1.86.154-.465.31-.775-1.239-1.55-1.393-.465.929-1.4.464-1.55-.31.775-.62,0-1.394-.62-1.859-.775-.464,0-1.548.62-1.548.775.309,1.395-.775,2.17,0,.775.154,1.86,1.084,2.635.309.93-.464-.93-.309-1.24-.774a6.836,6.836,0,0,0-4.65-.155c-.465-.155-.93-1.084-1.4-1.549.62.155,1.86-.619.62-.774-.93.31-1.7-.619-2.479-1.084-.155-.155-.31-.31-.31-.465a2.4,2.4,0,0,0-1.55-1.858c-1.24-.465-.62-.62-.775-1.239-.93-.62.62-1.239,0-1.859.465-.774-.775-1.548.465-1.858.31-.774-.465-.62-.775-1.084v.155c-.775-.155-.93-1.084-1.7-1.394-.465-.155-.93-.31-1.085-.62-.31.155-1.24-.619-1.705-.929a4.635,4.635,0,0,0-1.24-.619c-.155-.155-.155-.155-.155-.31h-.155a22.656,22.656,0,0,1-2.014-1.394c-.93,0-1.55-.929-2.48-.465-.775.31-.93-1.084-1.86-1.084-.465-.155-1.395-1.084-1.395-1.394,1.085.155,1.24.155.155-.309-.775-.31-1.55-.929-1.085-1.859a4,4,0,0,0-2.015-1.239,3.255,3.255,0,0,1-1.085,1.7c-.464.465-1.084-.774-1.239-1.239-.31-.774-.31-.929.155-.929-.465,0,.155,0,.464-.465-.464-.929-1.084,0-1.859-.465-.31.465-1.085.465-1.86.775-.62.31-1.085-.155-1.55.774.31.155,1.085.775.93,1.394-1.085.155-.775,1.239-.31,1.858a4.522,4.522,0,0,0,2.48,1.7c.93.465,2.015.774,2.015,1.859a7.286,7.286,0,0,0,2.324,2.942c.775.31,1.085.929,1.86,1.084a8.449,8.449,0,0,0,3.41.155c1.4.31-.155.929-.465,1.394a20.342,20.342,0,0,0,3.255,1.239,29.314,29.314,0,0,1,3.874,1.7c.31.619,1.4.774,1.55,1.548-.31.62-.465,1.7-1.24.775-.775-.31-.465-1.549-1.55-1.394a1.561,1.561,0,0,1-1.705-.775c-.929-.309-1.084,1.084-1.859,1.394,0,.62-.775,1.394.465,1.549.775.31,1.55.465,1.24,1.394.619,1.084-.62.774-1.24.929-1.085.155,0,1.549-.93,1.7-.775.309-.775,1.7-1.86,1.548-.775.31-1.085-1.239-.155-1.239.775-.619-.31-1.393.93-1.393,1.085.154-.155-.93-.155-1.549,0-.929-.93-1.549-.93-2.478-.31-1.084-1.24.31-1.86-.62-1.085-.309-.62-.464-.775-1.393-.465-.93-1.7-.155-2.015-.31,1.085-.31-.31-1.084-.775-.465-.465-.155-.62-1.394-1.394-1.549-1.085-.464-2.325-.154-3.255-.929-1.24-.929-2.79-1.858-4.03-2.942a6.294,6.294,0,0,1-3.72-4.182c-.619-1.394-2.169-2.013-3.564-2.323a2.336,2.336,0,0,0-2.79.31c-.93.464-1.705,1.239-2.79,1.239v-.31c0,.155-.155.155-.155.31-1.085.774-2.324,1.394-3.409,2.323-1.24.155-2.79.774-4.03-.155a2.606,2.606,0,0,0-2.325-.465c-1.085,0-2.015-.929-2.945-.309-.929.464-2.169,1.239-2.324,2.323.31.619.31.929,0,1.084a.333.333,0,0,1,.31.31c0,.619.62,1.548-.465,1.7-.93.62-2.325.62-2.945,1.549-1.4.31-2.945.31-4.185,1.084-.775.619.62,1.239-.775,1.239-.775.31-.93,1.239-1.7,1.7s-1.085,1.394-1.55,2.169c.31.929.465,1.858,1.55,2.013.62.465-1.085.774-1.4,1.084a7.451,7.451,0,0,0-1.395,1.7c-.62.619.31,1.548-.93,1.394s-2.79.309-2.945,1.7a1.186,1.186,0,0,1-1.705.62c-.775,0-1.4.774-2.169.309-1.55.155-3.1,0-4.65.155a4.393,4.393,0,0,1-2.48.93,11.338,11.338,0,0,1-.93,1.084c-.93.464-1.86-.31-2.48-.775,0-.929-1.084-1.084-.775-1.7a3.964,3.964,0,0,0-2.944-1.239c-.31.155-.465,0-.465-.155v.155c-.775.309-1.55.929-2.48.464-.775,0-1.55-.309-2.17.155-.93.155.155-1.239.155-1.7.155-.93-.62-1.394,0-2.169.155-.774-.155-1.084-1.085-.774-1.085-.155,0-.619.62-.929-.31-1.394-.775.464-1.55.155-1.085,0,.155-1.239,0-1.859-.155-.774.93-.929,1.085-1.7a5.744,5.744,0,0,0,.62-2.169c.31-.929,1.085-1.858.465-2.787-.155-.775-.62-1.7-.155-2.169h.155c-.62-.774.93-1.393.31-2.013a2.058,2.058,0,0,0-1.705-1.239c-.31-1.084,1.24-1.394,2.015-1.394.93.155,1.395-.155,1.55-.929,1.395-.929,2.945.31,4.34.31,1.239.31,2.324-.62,3.564-.465,2.48,1.239,5.27.465,7.9,1.084.775-.155,1.7-.929,2.479-.309a3.466,3.466,0,0,0,2.17.464l.155.155a1.66,1.66,0,0,0,1.4-1.7,12.873,12.873,0,0,0,.62-2.323c1.24-.619-.62.155,0-.774a4.5,4.5,0,0,1,.465-2.168,5.8,5.8,0,0,1,1.4,1.394,4.872,4.872,0,0,0-1.705-2.169c.31-.774.93-1.393,0-2.013-.62-.619-1.55-.155-2.015-1.084-1.085-.465-.31-1.239-.775-1.7-.62-.309-2.17-.309-1.24-1.239-.62-.464-1.4.465-2.015-.309a18.7,18.7,0,0,0-2.789-.775c-.465-.619-1.55.465-1.86-.464-1.4-.31-.31-.465.465-.465-.775-.774-1.085-.155-.155-.929-.62.155-2.015.155-1.085-.465.775-.309,1.55-.309,2.325-.619.465.464,1.24,0,1.705-.31.775-.155,1.55-.31,2.014.465.62.929,1.55-.31,2.17.155a2.162,2.162,0,0,1,1.7,0c1.4,0,0-.62.465-1.549,0-.775-1.085-.929-1.24-1.859.155-.464,1.55.31,2.17-.155-.155.465.155,1.394,1.085.93.93,0,1.86.309,2.635.309.31,0,2.324-.464,1.085-.619-.775-.31.774-.929,1.239-1.084,1.24-.465,2.635-.31,3.41-1.394,0-.347-.062-.786-.033-1.18a1.221,1.221,0,0,1-1.052.406c-.31.619-1.085.155-1.86.619-.93.62-2.169-.31-3.254.155-.775.465-1.55-.31-2.325,0-.93.155-1.86.155-2.79.31.62,1.084-1.24-.31-1.55.464a2.53,2.53,0,0,0-2.324-.309c-1.24-.31-.93.774-1.55,1.239-.62.619-1.085-.465-1.86-.465-.465.31-1.55,0-2.17.465-.775.309-1.24,1.239-1.86.464-1.55-.155-.62-.464.31-.774.62-.155,1.085-1.084,1.86-1.084.775-.465.62-1.394,1.55-1.394,0-.774,1.24-.62,1.86-.62.775,0,1.7.31,2.324,0,0-.464,1.55-1.7.465-1.239-1.085.775-2.479.31-3.564-.154-1.24-.465-2.945.309-4.03-.62-.155-.774,1.24-.774,1.86-.929.775-.155,1.86-.465,1.705-1.549.465-1.084-.775-.774-1.4-.774-.465-.31.93-1.084,1.4-1.084a32.727,32.727,0,0,1,4.029-.31c-.62-.62-.465-1.394,0-2.168.62-1.084-.775-.465-1.394-.774a.891.891,0,0,1-.155-1.7c1.239-.465,0-.774-.775-.774a3.015,3.015,0,0,1-2.79.31,1.612,1.612,0,0,1-2.015.31c-.775-.465.465-1.239.775-1.7,1.24-.619-.62-.774-.31-1.7.93.155,1.085-1.394.155-1.084-.62.774-1.395.619-2.17,1.084-.775-.155,0-1.394.465-1.858.93-.62-.62-1.549-.93-.62-.465.62-1.86.155-.465-.465.465-.619,1.4-1.084.62-1.858,1.24-.155.62-.929-.155-1.239.62-.929,1.395-.155,2.17-.465.465-.155-1.705-1.394-.155-1.239,1.705.155-.465-.774.465-1.239.62-.465,1.4.619,2.17.31,1.4-.155,2.79-.619,4.029-.31.775.619-.929.929-1.394,1.239-.775.31-2.015.465-2.325,1.549.775.619,1.86.155,2.79.155a37.7,37.7,0,0,0,4.184,0c1.085.465.31,1.084-.155,1.7.155.619-1.085,1.084-1.4,1.7-.155.619-2.015.619-1.55.774.775.31,1.55.465.31.774a5.648,5.648,0,0,1-2.324.31c-1.395,0,.31.465.775.465.929.31,2.014-.774,2.944-.155a3.642,3.642,0,0,1,2.17,1.084c1.085.155.62,1.084,1.085,1.7a2.331,2.331,0,0,0,2.17,1.549c.775.31,1.24,1.239,2.015,1.7.775.619-.31,1.7.465,1.858s1.7.619,1.549,1.548c-1.084.62-.774,1.239.31,1.084.93-.929,2.325-.464,3.41-.154a1.589,1.589,0,0,1,.775,2.013c-.62,1.084-2.015.929-2.79,1.858-.31.465-2.479.465-1.24.62a7.339,7.339,0,0,0,2.635.155.639.639,0,0,1,.417.274.831.831,0,0,1,.668-.429c.775-.465,1.55-.31,2.48-.62.93-.464,2.015-1.084,3.1-.774.62,0,1.084-.155,1.549-.155h-.31c-.774-.465-1.394-.774-.155-1.239a4.593,4.593,0,0,0,2.48-2.633,1.324,1.324,0,0,1,1.705-1.084c1.4.465,0,.775,0,1.239-.62.929.62.62,1.4.929.465-.154,1.86-1.084.62-1.084-.775-.619.31-1.084-1.085-.929,0-.619.155-1.394,1.085-1.394,1.085-.465,2.325-.155,3.41-.465.62,0,1.085.774,1.7.774.155.31.155-.465-.465-.465-.154-.774.93-1.084,1.55-.929.62,0,1.705-.465,2.015.31,0,.929.93.155.775-.155,1.4.774.155-.619,1.085-.929.62.31,2.635.155,1.24-.155-.62-.465,0-.62-.465-1.084.775-.31-1.86,0-.31-.465,1.24,0,.31-.774-.155-1.239s0-.619-.155-.619a1.58,1.58,0,0,0-.93-1.858c-.62.465-1.55-.31-.465-.774.93-.465-.93-1.084-.31-1.858.055-.442.229-.568.457-.563.377-.494.794-.92,1.4-.676a9.6,9.6,0,0,0,2.125-.328c.034-.324.145-.576.665-.446l.036.007a2.244,2.244,0,0,0,.274-.317,3.415,3.415,0,0,1,2.479-.774c1.085-.774-.155.465.155,1.084A1.374,1.374,0,0,1,603.17,88.092Zm-3.2.222q-.147,0-.3,0a1.6,1.6,0,0,0-.326-.075,1.364,1.364,0,0,1,.171.23A.41.41,0,0,0,599.971,88.314Zm-78.41-28.5a10.141,10.141,0,0,1,2.79.619c.62.929,0,2.633-1.24,2.478-.93-.31-1.24.465-1.55,1.084a2.087,2.087,0,0,1-2.635.31,14.906,14.906,0,0,1-4.34,1.7c-1.394.31-3.1-.31-4.184.774-1.085.774-2.48.619-3.72.619a13.752,13.752,0,0,1-4.959-1.239c-1.7-.155-3.565.155-5.27-.155-.465,0-2.48-.155-1.24-.619A4.811,4.811,0,0,0,498,63.994c-.155-.31-1.55,0-2.015-.465-.465-.774-1.24-.619-2.015-.465a8.43,8.43,0,0,1-2.789,0c-.93-.619.929-.774,1.394-.774a33.04,33.04,0,0,0,3.875-.465.7.7,0,0,0-.155-1.394,10.039,10.039,0,0,0-3.72-.155,3.3,3.3,0,0,1-2.944.155c-.31-.155-.465-.155-.62-.465.775-.929,2.17-.31,3.1-.619-.31-.31-1.7-1.084-.465-1.394,1.085,0,2.015,1.084,3.1.465.155-.62-2.015-.929-.62-1.394,1.4.465,2.945.155,4.185.929.93.619.31,1.549-.155,1.858.775.31,1.24,1.549,2.015.619.775-.465,2.015-.155,2.479-.929-.309-.774-.154-1.858.775-1.394.62.619,1.395,1.394,2.325,1.239-.155-.619-.155-1.239.93-1.239.775-.465,1.395.31,2.015.619.465.465,2.015.619,1.085-.31-.465-.774,1.24,0,1.7-.155a6.906,6.906,0,0,0,3.564-.465c-.465-1.084.31-1.084,1.24-.929.93,0,1.24.929,2.17.929.62.465,1.55.155,2.17.62C520.321,59.193,520.476,59.658,521.561,59.813ZM743.036,39.989c-1.085.465-2.635.619-3.255-.619-.465-1.084.93-1.7,1.705-1.239,1.24.31,2.48-.774,3.41-1.549.775-.774-1.085-.465-1.55-.774a12.962,12.962,0,0,0,3.1-1.239,17.866,17.866,0,0,0,4.029-.465c1.86.155,3.72-.31,5.58.31.465.465-.62,1.394-1.24,1.394-.93,0-2.015.619-1.705,1.7a3.916,3.916,0,0,0,.93,2.323,8.63,8.63,0,0,0,4.185,2.323c1.4.465,0,.929-.775.619-1.86,0-3.72-.31-5.27.465-.93.465-1.4-.465-2.17-.619a9.387,9.387,0,0,1-2.944,0c-.31-1.084,1.085-.774,1.705-1.084.929-.465-.775-.619-1.24-.774A14.412,14.412,0,0,0,743.036,39.989Zm300.054,73.874a1.779,1.779,0,0,0-1.71,1.394,6.485,6.485,0,0,0-.77,3.407,6.692,6.692,0,0,0,1.55,2.943c.77.154,1.55.929,1.39,1.7s-.31,2.013-.77.62a2.022,2.022,0,0,0-1.71-1.394c-1.08-.155-1.39,1.239-2.01,1.858-.31,1.084-1.24.155-1.24-.619-.47-1.084.46-1.859.77-2.633-.31-.62-.93-1.549-.15-2.168.77-.465.62-1.239.31-2.014-.16-.774-1.09-1.7,0-2.013.93-2.168.31-4.336.77-6.5a3.521,3.521,0,0,0-1.39-2.787,1.869,1.869,0,0,1-.16-2.014c.47-.774.93-1.858.16-2.632.15-.775,1.39-.155,2.01-.62.47-.155.78-.465,1.24-.619,1.09.929,2.02,2.323,1.4,3.716a4.222,4.222,0,0,0,.62,4.647c.77,1.393,1.39,3.1,2.32,4.491a19.36,19.36,0,0,0,1.86,2.943C1046.03,114.792,1044.79,113.708,1043.09,113.863ZM749.081,33.329c-1.4-.31-.93-.619.309-1.084a8.354,8.354,0,0,1,4.34-.774c1.24.155.62-1.084-.31-1.084.93-.929,2.325-.465,3.41-.929-.93-.465-1.55-.619-.31-1.084.93-.465,1.7-1.239,2.79-.929.93.31,1.7-.31,2.479-.774A18.664,18.664,0,0,1,770,25.431a3.639,3.639,0,0,0,2.169-1.084,9.376,9.376,0,0,1,2.945,0c2.17.619,4.185-.465,6.355-.31l6.044-.465a3.737,3.737,0,0,1,2.79-1.084c2.015,0,4.029-.31,5.889-.155.62,0,2.015.929.93,1.239-1.86,1.084-4.184,1.084-6.2,1.549-5.58.774-11.314,1.239-16.894,2.323-1.55.31-3.254.155-4.649.774-.93.619,1.55.619-.155,1.084-1.55.929-3.41.465-5.115.465-1.55.31,0,.774-.155,1.084a8.97,8.97,0,0,1-2.17.774,2.391,2.391,0,0,0-2.479.155c.62.155,2.014.774.93,1.239a12,12,0,0,1-2.48,1.084,15.016,15.016,0,0,0-5.89-.62C750.94,33.484,750.01,33.949,749.081,33.329ZM606.183,14.28c-1.395-.62-.31-.929.465-1.084a35.056,35.056,0,0,1,4.03-.155A11.739,11.739,0,0,1,613,12.886c-.155.929.465,1.394,1.4,1.239.774,0,1.859.619,2.014-.465.155-.774,1.4-.774,2.015-.62,1.55.465,2.635,1.7,4.185,2.013,1.24,0,.62-.774-.155-1.239-.93-.774-.465-1.394.465-1.549.93-.31,1.86.155,2.789.31a6.832,6.832,0,0,1,2.48.31c-.155.774-.62,1.549.62,1.549.775-.465,1.705-1.084,2.48-.31,1.7,1.239,3.72.929,5.579,1.549.465,0,2.325.465.93.62-1.7.619-3.564.31-5.269,1.084a8.154,8.154,0,0,1-2.48,3.1c-.93.155-2.015,0-2.635.774-.775.31-.775,1.394-1.24,1.7-1.549.62-3.254-.31-4.959-.619a19.439,19.439,0,0,1-3.875-1.394c1.085-.929,2.635-.465,3.875-.619a9.2,9.2,0,0,0,3.565-.774c-1.24-.774-2.79-.155-4.185-.155a40.665,40.665,0,0,1-4.34.155c-1.085-.929-.465-.929.62-.929a32.729,32.729,0,0,0,7.595-1.394,27.261,27.261,0,0,1-5.115-1.084c-1.4.155-2.17,1.394-3.565,1.549a5.6,5.6,0,0,1-4.184-.465c-1.085-.465-2.325-.619-3.255-1.394.775-.155,1.7-.465,2.48-.62-.775-.465-1.4-1.084-2.17-.62C607.733,14.9,606.8,15.054,606.183,14.28Zm35.8-1.394a54.2,54.2,0,0,0-8.834.31l-2.79-.465a5.922,5.922,0,0,1,2.48-.929,14.721,14.721,0,0,1,2.635-1.549,5.991,5.991,0,0,0,3.254,1.239c1.4-.155,2.945-.465,4.185.465a6.082,6.082,0,0,0,2.17-1.239c1.085-.465,1.395-.31.775.774-.155.929,1.4.62,1.86.31,1.084-.62,2.634-1.239,3.874-.62.775,1.084,2.015.62,3.1.62a11.842,11.842,0,0,1,4.03.31c1.394.465.155.774-.62.929a26.72,26.72,0,0,1-6.82,1.394c-1.55,0-2.945.929-4.494.619-2.635,0-5.27-.155-7.9-.155-.465-1.084,1.085-.62,1.705-.929C641.21,13.97,641.52,13.2,641.985,12.886ZM597.814,137.558c-.775-.309,0-.619-.31-1.084.465-.619,1.395-.619,1.86-.929,1.085.619.155-.929.93-.929.31.619,0,1.394.31,2.013.155.929-.465,1.549-.465,2.323,0,.929-.775,1.239-1.24.62-1.395-.155.31-.93-1.085-.93C598.589,137.868,596.884,138.333,597.814,137.558Zm2.17,2.943a3.321,3.321,0,0,1,1.55,2.478c-.775.774-.31,1.7-.31,2.633-.155.464-.465,2.013-1.24,1.394-.93-.31-1.085.309-1.705.774-.775,0-1.705-.774-1.24-1.7a4.315,4.315,0,0,0-.155-3.407c-.775-.31-.775-1.394.31-1.084C598.279,141.74,599.054,141.12,599.984,140.5Zm18.288,10.221c.62,0,2.015-.774,2.015.155-.465.775-1.55,1.859-.93,2.788.775.465-.155,1.084-.62,1.549,0-.155-.155,0-.155,0a4.545,4.545,0,0,1-2.48-1.084c-1.859-.31-3.409-1.549-5.269-1.7-1.085-.31-.155-1.7.62-1.7.93.465,1.55-.774,2.17-.154C615.017,151.5,616.722,150.877,618.272,150.722Zm37.507,9.448c.775-.775.155,1.239-.62.774a40.847,40.847,0,0,0-4.34.31c.31-.929-1.085-.929-1.7-.929a10.537,10.537,0,0,1-2.324-.31c-.155-.62.62-1.394.775-1.084.31.774,1.394-.31,1.394.309-.31.155.775.775,1.24.465a3.31,3.31,0,0,1,2.17.155c.62.31,2.015-.31,1.86.31C654.229,160.944,655.314,160.015,655.779,160.17Zm-115.93-54.051a4.967,4.967,0,0,1-2.945.31c.31-.929-.155-1.549-1.084-1.084-1.4-.465.774-1.239.31-1.084-.62.155-2.325-.155-.93-.31.775-.155,1.859.31,1.859-.774.31-.775,1.7,0,2.015-.775-.31-.309-2.17.465-1.085-.464-.31-.465.62-1.394,1.395-1.084,1.085-.31-.31-.465-.775-.465a10.233,10.233,0,0,0-2.17-.155c-.929,0-.155-.929-.309-.929.774.155.929-.929.929-1.084-.62-.31-2.014.155-1.084-.929.464-.62,1.239-.31,2.014-.155a18.782,18.782,0,0,1,2.945.155c-.775-.929,1.085-.465,1.24-1.239,0-.31-1.86.155-1.86-.155a1.819,1.819,0,0,0,1.55-1.394,3.229,3.229,0,0,1,2.015-.465c.155.465.775.465.93.774.31-.465,1.085-.465,1.7-.619.929-.31,1.7.155,2.634,0,.465.465,1.24,1.084,1.085,1.858.31.619.62,1.239-.31,1.7a2.875,2.875,0,0,1-1.085.31c-1.4,0-.155.774,0,1.549a7.008,7.008,0,0,1,.465,2.478c-.775.464-.93,1.393-1.24,1.858a3.407,3.407,0,0,0-2.169.31,8.568,8.568,0,0,0-3.875,1.084A3.7,3.7,0,0,1,539.849,106.119Zm11.159-12.854c.155-1.239-1.4-.31-.775.465C550.543,93.884,551.008,93.42,551.008,93.265Zm648-36.55C1199.94,57.18,1199.16,57.18,1199.01,56.715ZM731.1,137.4c-.155-.309-.465-.464-.62-.619A1.2,1.2,0,0,0,731.1,137.4Zm.155.155-.155-.155c0,.155,0,.155.155.155Zm-120.889-44.6c-1.395.465-.155.774-.31,1.239-.465.155-.775.619-1.24.774-.31-.774-1.085-.774-1.86-.774-.465,0-1.4-1.549-.62-1.549.93-.465,1.24-1.084,1.86,0,1.085.774.775-.929,1.4-1.084C610.523,91.252,610.833,92.181,610.368,92.955Z" fill="#7699e3"/>
        </g>
      </g>
    </g>
  </g>
</svg>
