<svg xmlns="http://www.w3.org/2000/svg" width="128.861" height="97.864" viewBox="0 0 128.861 97.864">
  <g id="Page-1" transform="translate(-0.201 -0.032)">
    <g id="map" transform="translate(-728 -280)">
      <g id="normal" transform="translate(77 144)">
        <g id="map-2" data-name="map">
          <path id="Middle-East" d="M656.074,143.24a2.591,2.591,0,0,0,.015-.261c.62-.31,1.86-1.084.465-.929a1.061,1.061,0,0,1-.93-1.767c.155-.775.465-1.176.62-1.795-.775-.465-.62-1.239.62-1.859a3.656,3.656,0,0,1,3.1-.474c.62,0,1.86.784,2.48.784.775.31.31,1.549,1.4,1.7.775.31,1.705.465,2.48.775a.585.585,0,0,0-.542.9.845.845,0,0,0,.542-.9,10.377,10.377,0,0,0,3.1,0,5.165,5.165,0,0,0,3.409.155c.155-.62.775-.775,1.55-1.084a11.443,11.443,0,0,1,7.44-1.549,4.257,4.257,0,0,0,3.1-.31c.31.62.775,1.394,1.55,1.394.775.155,1.705-.774,2.015.31a1.216,1.216,0,0,0,1.86.619c1.085,0,1.86,1.239,2.944.929,1.705-.154,3.255.62,4.805,0,1.395-.464,2.945.465,4.495.155a3.67,3.67,0,0,0,3.564-2.323c.155.155,1.108-.464,1.573-.31.93.31,1.6-.154,2.377-.464,1.085,0,.855.31,1.785.774.155.155,1.133.929,1.288,1.084.465.465,2.313.93,1.538,1.7-.62.774-.668,1.858.262,1.549.775,0,1.933,0,2.4.774.775.465.713,1.394,1.8,1.549.465.929.775,2.013,1.7,1.858.62,0,.93.155.93-.155.31.31.775.31,1.24-.309l-.7-.62a4.567,4.567,0,0,0,1.5-.774,15.984,15.984,0,0,0,1.839-.775c.775-.155,2.017-.929,2.637-.619,1.705.619,1.705,2.375,1.24,2.375-1.86.155.465.722-.31.877-.62.155-.775.393.775,1.167.31.62.62.559,1.085,1.178.155,0-.62-.331-.62-.331.155.309.31.309.465.774.155.929-.62,2.013.155,2.633,1.24.774,2.635.619,3.875.929a3.83,3.83,0,0,0,3.1,2.168,7.307,7.307,0,0,0,4.8.155c1.55-.31,3.1-.31,4.65-.465,1.085-.309.775-1.393.62-2.168a1.308,1.308,0,0,0,1.084,0c.155.155.31.31.465.31,1.395.155,2.17-1.084,2.945-1.859,1.085-1.084,2.635-.154,3.875-.619.775-.774,2.015-.465,2.945-.31.775.155,1.084,1.084,2.014,1.084,1.24.775,2.635.465,4.03.93,1.705.774,3.1,2.323,4.805,3.252.775.155,1.7-.31,2.324.155.155.464,0,1.239.155,1.858.155.775.31,1.084.155,1.394a22.013,22.013,0,0,1-.93,3.252c-.31.775-.929.93-1.394,1.549-.775,1.084.155,1.7,1.084,1.7.465.619-.774,1.239-.774,1.858.464,1.549.464,3.1.774,4.646.465.62,1.55.465,2.325.775a1.122,1.122,0,0,1,.775,1.858c-.93,1.084-3.255,2.478-2.79,3.1.62.929,1.4,1.858,2.015,2.787.62,1.394,2.015,1.859,3.41,2.323,1.085.155,1.085,1.239,1.085,2.169-.155.929.31,1.7,1.24,1.393a2.466,2.466,0,0,1,0,2.323c-1.085.31-2.17.155-3.1.775-1.24.464-1.705,1.858-1.86,3.1-.31.62-.31,1.084,0,.93a16.056,16.056,0,0,1-4.339-.465c-1.4-.929-3.255-.31-4.96-.62-.93.465-1.395-.464-2.17-.619-.93-.155-1.86,0-2.635-.155-.464-.465-1.394-.465-2.014-.774,0-.93-.62-1.239-.93-2.014-.31-.464,0-1.548-.775-1.858a3.878,3.878,0,0,0-2.015-.465c-.775-.155-1.24.62-2.015.465-.62.465-1.24.774-1.86,1.239a1.251,1.251,0,0,1-2.014.31,3.646,3.646,0,0,0-2.48-.775c-.62-.619-1.705-.619-2.48-1.084-.62-.464-1.085-1.239-1.7-1.7a3.807,3.807,0,0,0-2.325-.775c-1.24-.929-1.705-2.478-2.479-3.717-.775-.619-.155-1.548-.93-2.013-.62-.465-.93-1.394-1.55-1.7-.775,0-1.705.31-2.325-.155-.93.155-.155-1.7-1.24-1.084-.62.31-.465,1.7-1.705,1.239.155.465-1.24.31-1.705.31-.155.155-.465.31-.31.31.31,1.084.31,1.394-.62,1.7-.929.775.62.775,1.085.465.465.465.62,1.549.93,2.168a1,1,0,0,1,.31.775c.31.929,1.085,1.548,1.24,2.632.62.155,1.55,0,1.24.775.465.464.93,1.084,1.705,1.084.62-.155,1.86.929.93,1.239-.465.464.775,1.084,0,1.858-.31.31.465,1.859.775,1.549.93.31.465,1.239,1.085,1.859.465.619.155,1.548,1.085,1.858.464-.155.929.31.929.155-.465,0-.465-.774-.619-1.394-.156-.774-.465-2.013.309-2.478-.309-.619.31-1.858,1.085-1.394.155.62,1.085.929.62,1.859-.31.774.465,1.548-.155,2.323-.31.31-.465.774-.93,1.084.465.155.62.929,1.24.619-.465.775.775.62,1.4.775.775,0,1.085-.62,2.015-.31.775.155,1.4-.155,2.17,0a3.962,3.962,0,0,0,2.325,0c-.31-.774,1.239.465,1.394-.62.775-.309.93-1.084,1.395-1.7a25.716,25.716,0,0,0,2.015-2.168c.775.309,1.24-.775,1.86-1.084.465-.93.775-.62.62-.155.155-.31.31-.465,0-.62.62-1.239.775-.774.775.31-.155.31-.62,1.394-.93,1.239.31.155,1.085,0,.93.774a3.073,3.073,0,0,1,0,1.239,5.479,5.479,0,0,0,2.48,3.1c1.4.619,2.634,1.858,4.339,1.548.93.155,1.395,1.394,2.17,2.014a5.063,5.063,0,0,0,2.325,1.7c0,.775-.775,1.394-1.085,2.014-.775,1.239-2.17,1.858-2.635,3.252-.465.619-.62,1.858-1.55,1.394s-1.55.31-1.55,1.084a12.29,12.29,0,0,0,.155,3.407c-1.084.465-2.479,0-3.409.929-.93.62-.465,2.169-1.7,2.478-1.085.62-2.325-.309-3.1.775-.775.774,0,2.168-1.085,2.478-.93.619-1.86-.31-2.944,0a26.04,26.04,0,0,0-3.72,1.239c-1.4.464-2.945,1.548-2.945,3.1-.62.774-1.86,1.084-2.945,1.549a43.359,43.359,0,0,0-6.354,2.013c-.93.62-1.24,1.859-2.48,1.859a3.6,3.6,0,0,0-2.79.619,8.285,8.285,0,0,1-5.424,1.549c-1.24-.31-1.86.619-2.635,1.239a3.565,3.565,0,0,1-2.17.619,2.572,2.572,0,0,1-2.944.31c-.93-.465-2.015-1.394-1.4-2.478.31-1.084-.62-1.858-.775-2.943-.31-1.393-1.085-2.787-1.085-4.336.62-.619.155-2.013.155-2.013-.155-1.859-1.55-3.407-2.79-4.8a6.161,6.161,0,0,1-2.48-3.408c-.62-1.238-.93-2.787-2.014-3.716s-2.79-1.239-3.565-2.633c-.465-.929-1.395-1.7-1.24-2.788-.155-1.394.31-2.943-.62-4.181-1.085-1.7-1.86-3.872-3.875-4.647-.775,0-1.394-.774-1.859-1.393a2.38,2.38,0,0,0-.465-2.633c-1.4-2.169-3.255-3.872-4.495-6.195a7.879,7.879,0,0,0-2.015-2.478c-1.24.155-.93-.62-.465-1.394.155-.929.31-1.7.465-2.478,0-.465-.155-.774-.155-1.239a.805.805,0,0,1-.31.62c-1.085.929-1.395,2.632-1.7,4.026,0,.775-.31,1.859-1.24,1.239-.774-1.084-2.479-1.858-2.634-3.407-.31-.774-1.24-1.084-1.4-2.013-.31-.62-.62-1.859-1.395-.93-.62.775.31,1.549.465,2.324.465,1.7,1.86,2.632,2.79,4.026.465,1.394,1.4,2.633,1.86,4.182,1.239,1.394,1.859,3.407,2.944,4.956a8.006,8.006,0,0,0,2.79,3.562c.465.619-1.24.774-.465,1.7a3.5,3.5,0,0,0,1.705,2.633,4.121,4.121,0,0,1,1.7,1.549c.62.464,1.085,2.291-.155,1.981H653.3c-1.085.31-1.55-.9-1.24-1.981,0-5.73-.155-11.616,0-17.346,0-1.858.155-3.717,0-5.575-.465-1.084-1.085-2.323-.775-3.407.465-.775,1.085-1.394.62-2.169-.31-.774-.31-1.7.62-2.013.31-.465,1.4.31,2.015-.155,2.17-.31,4.185.62,6.2.775.775-.155.93,1.084,1.86.774a9.2,9.2,0,0,1,2.945.774c1.24.465,1.86-1.084,2.945-1.239.93-.309,2.169-.464,3.254-.929a7.77,7.77,0,0,1,2.635.155c.155.774,1.085,1.549,1.86,1.084.62,0,1.4.929,2.015.155.465-.465,1.24.465,2.015.31a3.262,3.262,0,0,0,2.014-.775c1.4-1.084,2.015-3.1,2.325-4.8.31,0,.31-.619.62-.929-.155,0-.155-.155.155-.465.155-.774.93-1.393.775-2.168.93,0,.31-1.394,1.085-1.7.155-.31.93-.31.93-.775-.62-.155-.775-1.239-.465-1.7.62-.775-1.085-1.239-.465-1.859.155-.464.31-1.239.775-1.239a1.274,1.274,0,0,1-.775-.774c0-.62,1.395-.775,1.395-1.394-.31-1.239-1.085-.31-1.7-.155-.155.31-.93.929-1.55.465-.775-.465-2.015-.929-2.79-.155-.774.31-1.084.929-1.549,1.394-.62-.465-1.4.309-2.17.309a4.685,4.685,0,0,1-3.72-1.393,6.933,6.933,0,0,0-3.875-1.394c-1.084-.155-1.239.774-1.239,1.548,0,1.239-1.085.31-1.705.62-.93.31-2.325.465-2.635-.774-.31-1.394-.775-.62-1.55-.775a1.662,1.662,0,0,0-2.17.155c-1.085.155.465-1.239-.465-1.084-.775-.155-1.859.31-2.169-.31.619-.155,1.084-.929-.155-1.084-.775-.155,0-1.394-.31-1.858-.775-.155-1.24-1.084-2.015-.62-.93-.155-.155-2.013.465-.929.93.31,1.4-.31.62-.774-1.395-.465,1.24-.465.465-1.084-1.085,0-.155-.62-.93-1.085-.93,0,1.705-1.084.465-1.084-.93,0-1.7.465-2.635.31.155-.619,0-1.239.31-1.7A.893.893,0,0,0,656.074,143.24Zm3.072-1.426a.847.847,0,0,1,.2.236c.464.309,2.324.309,1.394-.31-.155-.465,1.4,0,.775.31a10.007,10.007,0,0,1,3.72,0c.775-.62-1.86-.31-.31-.93,1.085-.309,2.17-.154,3.1-.464-.683-.137-1.485.207-2.09-.131a2.157,2.157,0,0,1-1.32-.024,3.849,3.849,0,0,0-2.635,0c-.775-.155-1.86,0-2.015,1.084A6.043,6.043,0,0,0,659.146,141.814Z" fill="#7699e3"/>
        </g>
      </g>
    </g>
  </g>
</svg>
