<svg xmlns="http://www.w3.org/2000/svg" width="154.222" height="223.234" viewBox="0 0 154.222 223.234">
  <g id="Page-1" transform="translate(-0.466 -0.924)">
    <g id="map" transform="translate(-376 -379)">
      <g id="normal" transform="translate(77 144)">
        <g id="map-2" data-name="map">
          <path id="South-America" d="M325.284,415.418a.669.669,0,0,1-.4-.639c-.465-.929-1.085-2.168-.62-3.252.155-1.394,1.395-2.013,2.015-3.1.465-.775-.31-1.7-.465-2.633-.62-1.239.465-2.788-.62-3.872-.62-.62-.465-1.7.62-1.239,1.24-.155.93-1.859,1.55-2.633.775-1.084.62-2.788,1.7-3.717,1.24-1.394,1.085-3.407,2.015-4.8.775-.464.465-1.394.155-2.168-.31-.929,1.085-1.084,1.085-2.013a44.838,44.838,0,0,1-.93-6.35c0-1.084,1.24-1.7,1.395-2.788a2.222,2.222,0,0,0-.465-2.168c-.155-.929.62-2.013.62-2.943a2.726,2.726,0,0,1,.93-2.013c.31-2.168,1.084-4.336.774-6.505.62-.774,1.24-1.7.775-2.632a3.46,3.46,0,0,1,0-2.169,5.642,5.642,0,0,1,.31-2.323,1.105,1.105,0,0,1-.465-1.7,1.4,1.4,0,0,0,.93-1.7c0-1.394.62-2.788.465-4.336.155-2.478-.31-4.956-.31-7.434.155-.62-.775-1.7-.155-2.014-.775.31-.62-1.238-1.395-1.238-.929-.465-2.479-.62-2.634-1.859-.31-1.084-1.7-1.084-2.48-1.7a46.259,46.259,0,0,0-6.2-3.1c-2.634-1.858-5.579-3.562-7.129-6.35,0-1.084.155-2.323-.775-3.252-1.4-1.549-1.86-3.717-3.1-5.421-.619-.309-1.239-.619-.929-1.548,0-1.394-1.085-2.633-1.7-3.872-1.4-2.633-2.48-5.266-4.34-7.589-1.085-1.084-1.55-2.942-3.1-3.562-.775-.619-1.859-.774-2.634-1.394.31-.774,1.859-.155,1.549-1.239-.464-1.394-1.859-2.168-1.859-3.717.62-1.393,1.859-2.168,2.944-3.1.62-.465.93-.62,1.085-.62a5.2,5.2,0,0,0,1.55-2.478c-.31-.464-.155-2.168-.465-1.548-.465.464-1.085,1.394-1.86,1.394-.62-.155-1.859-.775-1.549-1.239,1.084-.465-.155-1.549.309-2.323.62-.775-.774-1.549-.309-2.014.464-.31,1.859-.619,1.7-1.239-.93-.774.31-1.7.93-2.168,0-.774.31-1.549-.155-2.168.31-.775,1.55-.465,2.17-.929a3.794,3.794,0,0,0,1.7-1.394c-.31-.62-.62-1.549.62-1.394,1.085.31.62-.929.31-1.394,0-1.084,1.4-.929,2.17-.929,1.395-.62,1.549-2.478,2.479-3.562.775-.62.31-1.394-.465-1.7-.31-.619.62-1.394.465-2.168a7.429,7.429,0,0,0-.775-2.633c.155-.619,1.7-.619.62-1.394-.929-.464-.31-1.239,0-1.858-.31-.929-1.239-1.394-1.859-2.168.155-.775-.775-1.664,0-2.283s1.239-.04,1.239-.815c.93-.155.62-.464.465-1.084-1.084-.774,0-.619.465.155.465.31.465,1.858,1.24,1.394.775-.775-.775-1.549,0-2.323a6.758,6.758,0,0,0,2.015-2.168c.62-.465,1.86,0,1.86-1.085-.155-.929.31-1.7.31-2.632a3.945,3.945,0,0,1,2.79-2.169c.775.31,1.24,1.394,1.395,0,0-.929.619-1.239,1.394-.929a3.231,3.231,0,0,0,3.1-.774c.775-.62,2.17-.465,2.635-1.7a2.055,2.055,0,0,1,3.255-.464c.465.309.465.774-.31,1.084a1.483,1.483,0,0,1-1.085.309c-.775.155-1.7.62-1.085,1.549.31.774.775,1.084.775,2.013-.155.775-.93,1.239-1.085,2.014a1.325,1.325,0,0,0,.465,1.858c.155.62.465,2.014,1.395,1.549.62-.31,1.55-.619,1.395-1.394.155-1.084-.775-2.013-1.24-2.942-.62-.775-.62-.93-.31-1.549-.155-.465,1.395-.62,1.86-.929.774-.465,1.859-.465,2.634-.93.155-.464,2.015-.154.93-.929-.31-.464-1.4.155-1.55-.929.155-.774,1.55-1.239,1.55-.31.62.465.31,1.239.93,1.7a5.622,5.622,0,0,1,3.565.929c.62.465.465,1.549,1.085,2.013.93.775,2.015,0,3.1.155,1.395-.155,2.79-.619,3.875,0,.93,1.394,2.945,1.549,4.65,1.394,1.085-.465,2.015-2.013,3.564-1.7a12.569,12.569,0,0,1,4.805,0c-.465,1.085-1.86.155-2.48.62-.155.929,1.24.774,1.55,1.394.62.464.465,1.858.93.464.62-.309,1.395.31,2.17.31.465.929,1.705.929,2.48,1.549a2.765,2.765,0,0,0-1.395,1.858c-.155.465-2.325.775-1.4.93a4.506,4.506,0,0,0,2.48,0,6.975,6.975,0,0,1,3.564.619c.155-.155,1.24.929,1.86,1.084,1.085.62,2.635,1.7,2.325,3.252,0,.465,0,2.324.465,1.085.31-.93,1.4-.155,1.86.154a4.527,4.527,0,0,1,2.634,2.943.851.851,0,0,1,.465-.774c1.24-.31,2.17.619,3.41.619-.155-1.084,1.24-.464,1.86-.619a9.456,9.456,0,0,1,4.959.929c1.395.465,2.945.619,4.03,1.7a30.83,30.83,0,0,1,3.41,3.1c.775-.774,1.4.155,1.085,2.168.31,1.394.775,2.788,1.085,4.182.31,1.239.62,3.1,2.169,3.1.93,0,1.085,1.084.93,1.859-1.7.929-1.859,3.1-3.564,3.871-1.86.775-2.79,2.788-3.41,4.492-1.085.774,0,1.084.775.619.93-.31,1.55-.929,2.48-1.239.465.929.62,2.014,1.395,2.633a7.678,7.678,0,0,0,3.254,0c1.24-.619.775,0,.62.929-.155,1.394.62-.464,1.24-.619.93-.929,2.17-1.394,2.635-2.633.465-.774.93-1.7,1.86-1.394.775.31,1.55-.774,2.169.155a3.421,3.421,0,0,0,2.325.929c1.085.465,2.48.465,3.1,1.549.31,1.239,1.085,0,1.705.155.93.464,1.24,1.394,1.7,2.168-.465.774-1.085,1.549-.62,2.478.31,1.084.93-.62,1.55-.774a22.581,22.581,0,0,0,2.944-1.085c1.55.155,2.635,1.549,4.185,1.549a10.723,10.723,0,0,0,5.425,0,10.509,10.509,0,0,1,5.424,2.633,50.553,50.553,0,0,0,5.58,4.491c1.549.775,3.409.465,4.959.775,1.085.464.775,1.858,1.24,2.787.775,2.169,1.55,4.647.775,6.97a11.857,11.857,0,0,1-2.17,4.956c-1.395,1.084-2.635,2.477-4.03,3.562-.774.154-1.394.309-1.7,1.239a7.947,7.947,0,0,1-1.55,3.716,13.6,13.6,0,0,1-1.86,2.324c-.465,0-.62-1.7-1.4-1.085,0,1.549-1.085,2.943-.93,4.647-.155,1.858.465,3.871.465,5.73.155,1.858-.93,3.717-.775,5.575.465.93-.31,1.084-.93,1.549a3.631,3.631,0,0,0-.775,3.717,1.99,1.99,0,0,1-.93,2.323c-1.085.929-1.24,2.478-2.169,3.407-.775.929-1.55,2.323-1.085,3.562.155.775-1.395.465-1.86.929a1.9,1.9,0,0,0-1.24,2.169c-1.085.309-2.17,0-3.255.309-1.4.155-2.945-.464-4.339-.154-1.085-.31-1.24.464-1.7,1.084-.93.464-2.015.774-2.48,1.858a2.168,2.168,0,0,0-2.17,0c-1.86.929-3.41,2.323-5.269,3.252-.93.465-1.24,1.859-2.48,1.859-1.395-.155-.62.465-.31,1.084a1.69,1.69,0,0,1-.62,1.858c-.155.775.775,1.394.465,2.324,0,1.858.155,3.871-1.085,5.42-.775,1.084-2.17,1.549-2.945,2.788-1.24,1.394-1.395,3.407-2.634,4.8-.62,1.084-1.86,1.858-2.79,2.942a5.619,5.619,0,0,1,2.015-2.942c.155-.62,1.084-1.549.62-2.014-.62.465-1.55-.464-2.015,0a4.885,4.885,0,0,1-1.085,2.943c-.93.465-2.015,1.084-1.86,2.323a7.8,7.8,0,0,1-1.7,4.027,16.469,16.469,0,0,1-2.325,2.323c-.155,0-.62.619-.93,1.084a5.051,5.051,0,0,1-4.494,2.478,3.578,3.578,0,0,0-3.72.155c-1.085,0-1.55-1.239-2.635-1.394a5.061,5.061,0,0,0-2.634,0c-.93.155-1.24-1.084-2.015-1.239a.8.8,0,0,1-.31.619c-.775.62.465,1.239.93,1.7.93.774,2.635.62,3.1,1.859,0,.774-.929,1.393-.464,2.168.155.929,1.239.929,1.859,1.394.31.774.62,1.548-.155,2.168a20.147,20.147,0,0,0-2.324,2.787c-.31,1.394-2.015,1.549-3.1,2.014a39.887,39.887,0,0,1-9.609,1.239,9.732,9.732,0,0,1-2.945-.465c-.31.62-.31,1.7.31,2.014.93.309-.155,1.239-.31,1.7a1.5,1.5,0,0,0,0,2.168c.62.93-.775,1.084-1.4,1.394a6.5,6.5,0,0,1-5.114-.155,6.425,6.425,0,0,0-2.48-.464c-.775.619-.155,1.7.31,2.323.31.774-.775,1.7,0,2.323a2.409,2.409,0,0,0,2.17.774c.774-.464-.775-1.084.929-1.084.93-.619.93.465,1.085,1.239.465.929-.62,1.084-1.24,1.084a1.367,1.367,0,0,0-1.859-.774c-.62,0-2.48.464-1.24.774.62,0,1.86.155,2.015.465-1.085.619-2.48.619-3.1,1.7-.465.775.775,2.014-.31,2.633-.62.465-1.24,1.239-.155,1.7-1.55.464-3.41.155-4.8,1.239a4.863,4.863,0,0,0-2.014,2.633c0,1.548,1.7,2.632,2.944,3.252.93.465,2.015.31,2.79.774a2.632,2.632,0,0,1-.31,2.168c-.775,1.239-2.325,1.394-3.41,2.169a4.862,4.862,0,0,0-2.634,2.323c-.155.619.31,1.394-.31,2.013-.775.774-2.17.929-3.255,1.394a2.716,2.716,0,0,0-1.24,2.943c.31,1.548,1.55,2.632,2.325,3.871a3.868,3.868,0,0,1-2.635-.464c-1.085-.155-1.395,1.239-2.48,1.084-.93,0-2.48-.155-2.79,1.239-.464.774.155,1.7-.464,2.478a3.029,3.029,0,0,1-2.015.155c-1.395-.31-.775-.775,0-1.394,0-.62,1.705-1.084,1.085-1.549-.93-.619-1.7.31-2.635.465-.775.155-1.705-.155-2.48.309-.93-.929.62-1.084,1.24-1.239a6.218,6.218,0,0,0,2.325-.464,6.407,6.407,0,0,0-2.945-.31c-.31-.619,1.085-1.394-.31-1.394-.227-.6-.49-.582-.791-.437a.706.706,0,0,1,.481.282c.31.93-.155,1.394-.62,2.169,0-.155-.155.154-.155.154-1.24,0,0-1.7-.93-1.548-1.085.619-1.4-.93-.465-.93a.6.6,0,0,0,.136.077c-.1-.349.936-1.363-.136-1.006-.465.62-1.86-.619-1.24-.774.93-.465,0-1.084-.62-1.084-1.239-.465-.775-.62.31-.775.465-.309,1.24-1.239,1.085-1.548-.62,0-1.7.774-1.86-.31-.619-.774,1.55-1.084,0-1.549-1.084-.774.775-1.084.62-1.7-.155-.775-1.549,1.239-1.239-.465,0-.774-.155-1.549.464-2.168.155-.62-.774-2.014.31-1.7.775,0,1.55.62,2.17.31.62-.62-.93-1.084-1.395-1.084-.93.31-1.549-.31-2.324,0a5.546,5.546,0,0,1,.62-1.7c.774.465,1.7-.774.619-1.084a3.864,3.864,0,0,0-2.634-.464c-.465-.62-.62-1.085-1.705-.62-.62-.31.93-.774,1.4-1.084.775-.155,1.085-1.084,1.55-1.394.62-.31,2.169.155,1.394.774-.929,0-1.7.775-.929,1.394.31-.464,1.394-1.548,1.239-.309-.155,1.548.775,0,1.24-.465.775-.929,0-2.478,1.24-2.943,1.55-.464-.775-.309-.31-1.084.465-.464,1.4-.619,2.015-1.239.93-.619.465-1.394-.465-1.548-1.085-.31-.775-1.239-.465-1.859,0-.774-.31-1.7.62-2.013,1.24-.155.31-.775.155-1.549-.62-1.084.62-1.239.93-1.7.31-.929-1.55-.774-.62-1.548.465-.775-1.085-.929-1.395-.31a1.614,1.614,0,0,1-1.035.43c.67.468.339,1.144-.515,1.428-.93.62.775,1.239.31,2.014a5.91,5.91,0,0,1-.465,1.549c-.62-.155-2.014,0-1.55-1.085a5.757,5.757,0,0,0,.31-2.787A1.346,1.346,0,0,1,325.284,415.418Zm76.627-136.771c0-.775.31-1.549,1.24-1.239,1.085,0,2.325.619,3.41,0a6.516,6.516,0,0,1,2.48.619c-.93.93-.465,2.633-1.7,3.407-1.085.93-2.325.62-3.565.775a6.713,6.713,0,0,1-.775.155c-.93,0-1.239-.775-1.394-1.549C402.066,280.2,401.6,279.421,401.911,278.647Zm-51.3,178.722c.775.31,1.705.155,2.79.62,0,.929-1.395.619-2.015.774-1.085,0-2.325.774-3.41.155a17.024,17.024,0,0,0-5.579-.465c-.465.155-.62,0-.62-.155v.31a3.615,3.615,0,0,1-3.1-.31c-1.085-.155-2.17.465-3.41.465.465-.62,0-1.7.93-1.549a9.384,9.384,0,0,1,2.945,0c.31.465,2.17.62,1.085-.155a2.791,2.791,0,0,0-2.325-1.084c-.62-.464-1.24-1.394,0-1.394.465-.309,2.015-.464,1.24-1.239a15.357,15.357,0,0,1-2.79.31c-.62-.464.465-1.394.93-1.549a7.149,7.149,0,0,0,2.325-1.393c.62.619,1.55.309,2.325.464v.31c0-.31.31-.465.775-.155,1.24.31-.155,1.084-.62,1.394h-.155v0c.465.774,1.7-.155,2.17.774a22.161,22.161,0,0,0,3.719,2.943C348.751,456.75,349.526,457.524,350.611,457.369Z" fill="#7699e3"/>
        </g>
      </g>
    </g>
  </g>
</svg>
